<?xml version="1.0" encoding="utf-8"?>
<!-- Generator: Adobe Illustrator 26.2.1, SVG Export Plug-In . SVG Version: 6.00 Build 0)  -->
<svg version="1.1" id="Layer_1" xmlns="http://www.w3.org/2000/svg" xmlns:xlink="http://www.w3.org/1999/xlink" x="0px" y="0px"
	 viewBox="0 0 2222 733.2" style="enable-background:new 0 0 2222 733.2;" xml:space="preserve">
<style type="text/css">
	.st0{fill:none;stroke:#0000FF;stroke-width:0.75;stroke-miterlimit:3;}
	.st1{fill:none;stroke:#000000;stroke-width:2;stroke-miterlimit:3;}
	.st2{fill:none;stroke:#FF0000;stroke-width:0.75;stroke-miterlimit:3;}
	.st3{fill:none;stroke:#00FF00;stroke-width:0.75;stroke-miterlimit:3;}
</style>
<g id="layer1">
	<polygon class="st0" points="1071.1,619.2 1070.9,617.1 1070.2,615 1069.2,613.1 1067.8,611.4 1066.1,610 1064.2,609 1062.2,608.4 
		1060,608.2 1057.8,608.4 1055.8,609 1053.8,610 1052.2,611.4 1050.8,613.1 1049.8,615 1049.1,617.1 1048.9,619.2 1049.1,621.4 
		1049.8,623.5 1050.8,625.4 1052.2,627.1 1053.8,628.4 1055.8,629.5 1057.8,630.1 1060,630.3 1062.2,630.1 1064.2,629.5 
		1066.1,628.4 1067.8,627.1 1069.2,625.4 1070.2,623.5 1070.9,621.4 	"/>
</g>
<rect x="810.8" y="505.4" class="st1" width="309.2" height="221.8"/>
<g>
	<g id="layer1_00000132088029869966138260000000516268110456518061_">
		<polygon class="st2" points="1086.6,45.3 1086.4,43.1 1085.7,41 1084.7,39.1 1083.3,37.4 1081.6,36.1 1079.7,35 1077.7,34.4 
			1075.5,34.2 1073.3,34.4 1071.3,35 1069.3,36.1 1067.7,37.4 1066.3,39.1 1065.3,41 1064.6,43.1 1064.4,45.3 1064.6,47.4 
			1065.3,49.5 1066.3,51.4 1067.7,53.1 1069.3,54.5 1071.3,55.5 1073.3,56.1 1075.5,56.3 1077.7,56.1 1079.7,55.5 1081.6,54.5 
			1083.3,53.1 1084.7,51.4 1085.7,49.5 1086.4,47.4 		"/>
	</g>
	<rect x="810" y="1" class="st1" width="310" height="220.2"/>
</g>
<g>
	<g id="layer1_00000079466666765831049200000014379865879546999740_">
		<polygon class="st3" points="1086.4,341.4 1086.2,339.2 1085.6,337.1 1084.6,335.2 1083.2,333.5 1081.5,332.2 1079.6,331.1 
			1077.5,330.5 1075.4,330.3 1073.2,330.5 1071.1,331.1 1069.2,332.2 1067.6,333.5 1066.2,335.2 1065.2,337.1 1064.5,339.2 
			1064.3,341.4 1064.5,343.5 1065.2,345.6 1066.2,347.5 1067.6,349.2 1069.2,350.6 1071.1,351.6 1073.2,352.2 1075.4,352.4 
			1077.5,352.2 1079.6,351.6 1081.5,350.6 1083.2,349.2 1084.6,347.5 1085.6,345.6 1086.2,343.5 		"/>
	</g>
	<rect x="810" y="252.8" class="st1" width="310" height="221.8"/>
</g>
<g>
	<g id="layer1_00000029025513981770015520000018297111853368919714_">
		<line class="st2" x1="462.6" y1="630.7" x2="164.5" y2="545"/>
		<line class="st2" x1="330.4" y1="245" x2="216.9" y2="145.2"/>
		<line class="st2" x1="537" y1="34.5" x2="498.5" y2="621.7"/>
		<line class="st2" x1="491.6" y1="564.5" x2="103" y2="666"/>
		<line class="st2" x1="652" y1="122.4" x2="154.4" y2="692.2"/>
		<line class="st2" x1="143.8" y1="679.5" x2="21.9" y2="308.7"/>
		<line class="st2" x1="407.3" y1="24.5" x2="378.8" y2="387.7"/>
		<line class="st2" x1="12.8" y1="94.1" x2="190.2" y2="256.4"/>
		<line class="st2" x1="196.2" y1="148.9" x2="644.6" y2="363.6"/>
		<line class="st2" x1="526.4" y1="149.3" x2="531.5" y2="218.1"/>
		<line class="st2" x1="127.9" y1="321.6" x2="717.2" y2="405.2"/>
		<line class="st2" x1="609.9" y1="118.1" x2="239.2" y2="35.4"/>
		<line class="st2" x1="521" y1="314.5" x2="495.2" y2="51.4"/>
		<line class="st2" x1="481.2" y1="504.2" x2="709.9" y2="149.8"/>
		<line class="st2" x1="353.2" y1="296.1" x2="226.9" y2="392.8"/>
		<line class="st2" x1="630.5" y1="215.6" x2="632.3" y2="169"/>
		<line class="st2" x1="558.8" y1="361.8" x2="687" y2="647.6"/>
		<line class="st2" x1="627.8" y1="265.8" x2="581" y2="718.4"/>
		<line class="st2" x1="62.3" y1="293.1" x2="227.1" y2="305.9"/>
		<line class="st2" x1="168.2" y1="572.3" x2="232.4" y2="657.3"/>
		<line class="st2" x1="62.2" y1="208.4" x2="667.3" y2="228.1"/>
		<line class="st2" x1="654.7" y1="145.6" x2="99.5" y2="717.1"/>
		<line class="st2" x1="689.6" y1="210.6" x2="386.8" y2="452.6"/>
		<line class="st2" x1="458" y1="608.4" x2="725.2" y2="708"/>
		<line class="st2" x1="319.4" y1="405.4" x2="285.4" y2="290.8"/>
		<line class="st2" x1="43.9" y1="85.4" x2="704" y2="541.9"/>
		<line class="st2" x1="603.9" y1="350.1" x2="299.4" y2="246.9"/>
		<line class="st2" x1="615.8" y1="59.7" x2="172.2" y2="216.9"/>
		<line class="st2" x1="447.9" y1="119.4" x2="266.1" y2="438.9"/>
		<line class="st2" x1="566.6" y1="498.2" x2="115.4" y2="653.1"/>
		<line class="st2" x1="98.6" y1="597.2" x2="460" y2="149.4"/>
		<line class="st2" x1="103.8" y1="665.5" x2="703.4" y2="73.1"/>
		<line class="st2" x1="6.6" y1="694.6" x2="104.3" y2="405"/>
		<line class="st2" x1="471.5" y1="362.6" x2="105.2" y2="552"/>
		<line class="st2" x1="454.7" y1="294.9" x2="116.7" y2="446.3"/>
		<line class="st2" x1="91.6" y1="111.9" x2="681.6" y2="212.3"/>
		<line class="st2" x1="145.6" y1="156.7" x2="378.8" y2="241.3"/>
		<line class="st2" x1="66.6" y1="197.7" x2="121.5" y2="268.9"/>
		<line class="st2" x1="416.3" y1="563.5" x2="500.5" y2="131.3"/>
		<line class="st2" x1="359.7" y1="194.3" x2="610.8" y2="230.8"/>
		<line class="st2" x1="543.2" y1="305.3" x2="65.6" y2="536.7"/>
		<line class="st2" x1="198.3" y1="117.1" x2="111.4" y2="522.2"/>
		<line class="st2" x1="583.2" y1="76.1" x2="39.7" y2="566.7"/>
		<line class="st2" x1="91" y1="285.9" x2="420" y2="99.2"/>
		<line class="st2" x1="251.2" y1="633.7" x2="582.4" y2="365.7"/>
		<line class="st2" x1="347.7" y1="670.6" x2="663.1" y2="64.4"/>
		<line class="st2" x1="312" y1="139.5" x2="202.7" y2="612.9"/>
		<line class="st2" x1="666.5" y1="406.1" x2="43.2" y2="81.9"/>
		<line class="st2" x1="433.5" y1="304.4" x2="687.6" y2="103.2"/>
		<line class="st2" x1="32.1" y1="354.7" x2="55.9" y2="381.4"/>
		<line class="st2" x1="146.1" y1="665.4" x2="358" y2="242.6"/>
		<line class="st2" x1="427.9" y1="540.4" x2="581.8" y2="573.9"/>
		<line class="st2" x1="188.5" y1="531.7" x2="91.9" y2="177.4"/>
		<line class="st2" x1="329.3" y1="725.8" x2="228.3" y2="415.9"/>
		<line class="st2" x1="71.2" y1="207.8" x2="108.2" y2="622"/>
		<line class="st2" x1="645.6" y1="667.2" x2="153.7" y2="144.1"/>
		<line class="st2" x1="413.4" y1="507" x2="38.9" y2="645.4"/>
		<line class="st2" x1="556.9" y1="287.6" x2="123.2" y2="441.3"/>
		<line class="st2" x1="74.9" y1="390.7" x2="262.3" y2="57.2"/>
		<line class="st2" x1="651.3" y1="665.3" x2="404.9" y2="377.7"/>
		<line class="st2" x1="510" y1="459" x2="373.5" y2="558.3"/>
		<line class="st2" x1="686" y1="650" x2="177.6" y2="481.1"/>
		<line class="st2" x1="457.3" y1="428.7" x2="677.3" y2="235.8"/>
		<line class="st2" x1="581.6" y1="516.3" x2="416.9" y2="37.3"/>
		<line class="st2" x1="588" y1="384.2" x2="654.9" y2="147.3"/>
		<line class="st2" x1="493.3" y1="90.8" x2="234.4" y2="477.1"/>
		<line class="st2" x1="127.6" y1="573.8" x2="147" y2="26.9"/>
		<line class="st2" x1="121.4" y1="308.7" x2="434.1" y2="590.9"/>
		<line class="st2" x1="236.6" y1="308.6" x2="235.1" y2="529.2"/>
		<line class="st2" x1="462.4" y1="324.7" x2="640.2" y2="478.3"/>
		<line class="st2" x1="490.1" y1="442.8" x2="601.8" y2="353.7"/>
		<line class="st2" x1="130" y1="543.8" x2="286.7" y2="567.3"/>
		<line class="st2" x1="487.8" y1="39.3" x2="223.5" y2="209"/>
		<line class="st2" x1="65.9" y1="642" x2="114.5" y2="553.4"/>
		<line class="st2" x1="132.1" y1="340.2" x2="387.8" y2="406"/>
		<line class="st2" x1="265.6" y1="435.1" x2="588.3" y2="169.7"/>
		<line class="st2" x1="239.7" y1="329.7" x2="439.7" y2="58.2"/>
		<line class="st2" x1="337" y1="74.3" x2="469.7" y2="214"/>
		<line class="st2" x1="482.6" y1="306.2" x2="208.5" y2="335.3"/>
		<line class="st2" x1="711.9" y1="427.6" x2="104.5" y2="593.7"/>
		<line class="st2" x1="644.7" y1="496.1" x2="308.4" y2="283.6"/>
		<line class="st2" x1="657.8" y1="87.1" x2="428.3" y2="154.2"/>
		<line class="st2" x1="397" y1="84.4" x2="535.6" y2="74.5"/>
		<line class="st2" x1="460.8" y1="679.7" x2="700.1" y2="108.5"/>
		<line class="st2" x1="159.5" y1="20.9" x2="325.5" y2="494"/>
		<line class="st2" x1="300.1" y1="627.3" x2="689.6" y2="178.7"/>
		<line class="st2" x1="721.5" y1="618.4" x2="138.9" y2="524.2"/>
		<line class="st2" x1="540.8" y1="124.3" x2="87.8" y2="291.4"/>
		<line class="st2" x1="571.7" y1="120.3" x2="117.2" y2="126.2"/>
		<line class="st2" x1="605.6" y1="483.3" x2="271.8" y2="514"/>
		<line class="st2" x1="351.2" y1="218.5" x2="352.7" y2="587.7"/>
		<line class="st2" x1="284.1" y1="688.7" x2="583.7" y2="709.2"/>
		<line class="st2" x1="338.8" y1="502.1" x2="327.5" y2="444.7"/>
		<line class="st2" x1="314.8" y1="675.5" x2="622.3" y2="58.8"/>
		<line class="st2" x1="715.8" y1="279.9" x2="460.6" y2="668.4"/>
		<line class="st2" x1="653.3" y1="655.1" x2="263.7" y2="437.7"/>
		<line class="st2" x1="586.9" y1="195.9" x2="626.2" y2="15.1"/>
		<line class="st2" x1="394.7" y1="205.2" x2="564.7" y2="406.2"/>
		<line class="st2" x1="185.6" y1="193.1" x2="415.7" y2="713.6"/>
		<line class="st2" x1="413.4" y1="105.5" x2="177.2" y2="570"/>
		<line class="st2" x1="200.8" y1="359.1" x2="721.1" y2="433.2"/>
		<line class="st2" x1="328.6" y1="476.5" x2="436.3" y2="445.6"/>
		<line class="st2" x1="41.6" y1="140.9" x2="660.9" y2="719.7"/>
		<line class="st2" x1="473.2" y1="458.1" x2="37.4" y2="360.7"/>
		<line class="st2" x1="211.5" y1="110.1" x2="417.4" y2="507.5"/>
		<line class="st2" x1="598.4" y1="503" x2="405.9" y2="238.3"/>
		<line class="st2" x1="393.8" y1="562" x2="48.4" y2="500.3"/>
		<line class="st2" x1="537.8" y1="357.1" x2="702.1" y2="336.6"/>
		<line class="st2" x1="376.5" y1="163.2" x2="498.7" y2="445.7"/>
		<line class="st2" x1="686.3" y1="283.6" x2="322.5" y2="709.9"/>
		<line class="st2" x1="580.4" y1="85.7" x2="72.6" y2="192.7"/>
		<line class="st2" x1="430.5" y1="167.3" x2="209.4" y2="617.1"/>
		<line class="st2" x1="315.9" y1="146.6" x2="352.2" y2="330.7"/>
		<line class="st2" x1="22.1" y1="210.3" x2="552" y2="683"/>
		<line class="st2" x1="364.8" y1="163.4" x2="700" y2="276.3"/>
		<line class="st2" x1="191.7" y1="307.7" x2="157.9" y2="371.2"/>
		<line class="st2" x1="116.3" y1="371.7" x2="529.2" y2="159.9"/>
		<line class="st2" x1="78.9" y1="437.2" x2="716.7" y2="8.3"/>
		<line class="st2" x1="538.1" y1="342.8" x2="521.6" y2="554.8"/>
		<line class="st2" x1="685.6" y1="495.7" x2="593.3" y2="128.3"/>
		<line class="st2" x1="134.8" y1="13.6" x2="720.7" y2="505.2"/>
		<line class="st2" x1="132" y1="236.7" x2="606.9" y2="45.4"/>
		<line class="st2" x1="103.2" y1="87" x2="464.9" y2="392.7"/>
		<line class="st2" x1="683.2" y1="19.5" x2="122.5" y2="555.6"/>
		<line class="st2" x1="537.4" y1="370.2" x2="578.8" y2="710.9"/>
		<line class="st2" x1="482.4" y1="242.4" x2="481.1" y2="271.4"/>
		<line class="st2" x1="690.5" y1="20.7" x2="341.2" y2="686.7"/>
		<line class="st2" x1="584.8" y1="10.5" x2="558.1" y2="408.8"/>
		<line class="st2" x1="350" y1="340.8" x2="170.2" y2="229.6"/>
		<line class="st2" x1="44.1" y1="192.2" x2="172.6" y2="365.7"/>
		<line class="st2" x1="592.6" y1="173.5" x2="508.8" y2="134.2"/>
		<line class="st2" x1="289.2" y1="497.6" x2="544.3" y2="110.4"/>
		<line class="st2" x1="254.6" y1="100.5" x2="28.2" y2="32.4"/>
		<line class="st2" x1="126.9" y1="313.6" x2="44.1" y2="568.6"/>
		<line class="st2" x1="217.3" y1="556.5" x2="170.2" y2="197.7"/>
		<line class="st2" x1="10.2" y1="218.5" x2="681.6" y2="332.3"/>
		<line class="st2" x1="230.2" y1="305.7" x2="440.3" y2="351.3"/>
		<line class="st2" x1="584.8" y1="349.8" x2="78" y2="327.1"/>
		<line class="st2" x1="375.1" y1="134.7" x2="441.3" y2="23"/>
		<line class="st2" x1="661.6" y1="274.3" x2="244" y2="320.5"/>
		<line class="st2" x1="479.8" y1="198.8" x2="149.9" y2="506.7"/>
		<line class="st2" x1="548.2" y1="210.3" x2="382.7" y2="17.9"/>
		<line class="st2" x1="126.3" y1="102" x2="285.1" y2="332.3"/>
		<line class="st2" x1="576.3" y1="102.1" x2="161.6" y2="293.3"/>
		<line class="st2" x1="267.1" y1="205.3" x2="242.5" y2="638.2"/>
		<line class="st2" x1="547.4" y1="56.7" x2="65.7" y2="384.9"/>
		<line class="st2" x1="515.7" y1="315.4" x2="459.9" y2="486.9"/>
		<line class="st2" x1="666.2" y1="184.1" x2="488.6" y2="3.8"/>
		<line class="st2" x1="535.5" y1="46.4" x2="326.5" y2="594.3"/>
		<line class="st2" x1="45.5" y1="578.5" x2="687.4" y2="185.3"/>
		<line class="st2" x1="635.4" y1="274.2" x2="564.8" y2="242.5"/>
		<line class="st2" x1="687.6" y1="552" x2="347.3" y2="457.5"/>
		<line class="st2" x1="280.4" y1="701" x2="109.5" y2="511.7"/>
		<line class="st2" x1="6.4" y1="373.1" x2="515.9" y2="378.4"/>
		<line class="st2" x1="131.7" y1="348.8" x2="328.3" y2="624.7"/>
		<line class="st2" x1="64.3" y1="386.8" x2="219.1" y2="502.4"/>
		<line class="st2" x1="266.1" y1="329.7" x2="523.7" y2="9.3"/>
		<line class="st2" x1="226.9" y1="153.1" x2="112.8" y2="410.8"/>
		<line class="st2" x1="218.6" y1="485.6" x2="12.1" y2="605.2"/>
		<line class="st2" x1="124.5" y1="185.5" x2="629.6" y2="564.8"/>
		<line class="st2" x1="78.4" y1="137.2" x2="589" y2="183.7"/>
		<line class="st2" x1="6.3" y1="454.3" x2="417.7" y2="32.8"/>
		<line class="st2" x1="512.2" y1="5.6" x2="286.4" y2="586.5"/>
		<line class="st2" x1="426.5" y1="692.4" x2="348.6" y2="54.7"/>
		<line class="st2" x1="321.5" y1="692.1" x2="268.8" y2="321"/>
		<line class="st2" x1="693.4" y1="710.2" x2="357.1" y2="236.4"/>
		<line class="st2" x1="486.1" y1="700.5" x2="86.1" y2="302.5"/>
		<line class="st2" x1="477.9" y1="406.1" x2="353.8" y2="374"/>
		<line class="st2" x1="299.2" y1="290.5" x2="667.6" y2="239"/>
		<line class="st2" x1="307.9" y1="196.6" x2="602.9" y2="451.6"/>
		<line class="st2" x1="252.5" y1="640.1" x2="500.1" y2="464"/>
		<line class="st2" x1="423.6" y1="7.9" x2="619.7" y2="153.6"/>
		<line class="st2" x1="179.2" y1="69.1" x2="172.7" y2="70.6"/>
		<line class="st2" x1="446.2" y1="444.2" x2="325.9" y2="406.8"/>
		<line class="st2" x1="460" y1="567.8" x2="576.4" y2="710.4"/>
		<line class="st2" x1="392" y1="297" x2="321.5" y2="79.8"/>
		<line class="st2" x1="548.4" y1="146.1" x2="513.2" y2="412.4"/>
		<line class="st2" x1="716.4" y1="257.8" x2="604.4" y2="358.7"/>
		<line class="st2" x1="10.6" y1="664.2" x2="306.8" y2="225.1"/>
		<line class="st2" x1="351" y1="527" x2="271.6" y2="78.7"/>
		<line class="st2" x1="49.9" y1="498.3" x2="696.9" y2="95.6"/>
		<line class="st2" x1="511.7" y1="576.4" x2="428" y2="633.7"/>
		<line class="st2" x1="39.9" y1="139.1" x2="122.8" y2="448.6"/>
		<line class="st2" x1="38.8" y1="610.7" x2="350.5" y2="350.5"/>
		<line class="st2" x1="674" y1="185.5" x2="257" y2="680.8"/>
		<line class="st2" x1="662.8" y1="179.5" x2="610.9" y2="293.4"/>
		<line class="st2" x1="508.7" y1="571.4" x2="288.8" y2="568.8"/>
		<line class="st2" x1="620.6" y1="584.6" x2="111.8" y2="73.3"/>
		<line class="st2" x1="22.8" y1="1.9" x2="665.7" y2="140.3"/>
		<line class="st2" x1="320.2" y1="215.9" x2="297.4" y2="599.5"/>
		<line class="st2" x1="187.1" y1="624" x2="572.7" y2="103.3"/>
		<line class="st2" x1="568.9" y1="379" x2="603.7" y2="161.6"/>
		<line class="st2" x1="231.2" y1="41.6" x2="503.5" y2="343.8"/>
		<line class="st2" x1="411.8" y1="88.8" x2="284.1" y2="26.3"/>
		<line class="st2" x1="376.4" y1="695.8" x2="93.2" y2="283.6"/>
		<line class="st2" x1="716.5" y1="631.1" x2="661.7" y2="646.1"/>
		<line class="st2" x1="277" y1="116.5" x2="325.5" y2="667.2"/>
		<line class="st2" x1="486.3" y1="487.5" x2="655.9" y2="145.9"/>
		<line class="st2" x1="697.7" y1="30.6" x2="629.9" y2="442"/>
		<line class="st2" x1="256" y1="595" x2="362.7" y2="666.5"/>
	</g>
	<g id="layer2">
		<line class="st3" x1="376.2" y1="679.7" x2="516.8" y2="482.2"/>
		<line class="st3" x1="253.6" y1="19.1" x2="147.2" y2="577.7"/>
		<line class="st3" x1="84.2" y1="346.7" x2="41.3" y2="377"/>
		<line class="st3" x1="682.1" y1="398.9" x2="707.7" y2="202.1"/>
		<line class="st3" x1="90.2" y1="326.2" x2="326.1" y2="195.9"/>
		<line class="st3" x1="410.8" y1="152.3" x2="259.4" y2="711.1"/>
		<line class="st3" x1="78.6" y1="171.9" x2="40.5" y2="479.2"/>
		<line class="st3" x1="383.5" y1="209.5" x2="722.5" y2="322.3"/>
		<line class="st3" x1="62.6" y1="208.6" x2="700" y2="167.1"/>
		<line class="st3" x1="597.2" y1="180.2" x2="171.5" y2="79.8"/>
		<line class="st3" x1="218.5" y1="295.3" x2="218.7" y2="695.5"/>
		<line class="st3" x1="638.8" y1="438.1" x2="117.8" y2="288.9"/>
		<line class="st3" x1="102.1" y1="374.9" x2="405.1" y2="603.1"/>
		<line class="st3" x1="189.7" y1="622.8" x2="140.1" y2="627.7"/>
		<line class="st3" x1="719.7" y1="651.1" x2="359.7" y2="473.6"/>
		<line class="st3" x1="282.3" y1="634.4" x2="50" y2="234.6"/>
		<line class="st3" x1="29.1" y1="132.9" x2="722.4" y2="159"/>
		<line class="st3" x1="658.7" y1="120.6" x2="453.9" y2="247.6"/>
		<line class="st3" x1="615.7" y1="104.9" x2="82.3" y2="275.3"/>
		<line class="st3" x1="265.3" y1="169.1" x2="56" y2="552.6"/>
		<line class="st3" x1="234.9" y1="300.7" x2="442.6" y2="646.2"/>
		<line class="st3" x1="668.5" y1="421.5" x2="163.5" y2="498.3"/>
		<line class="st3" x1="259.9" y1="564.7" x2="179.5" y2="220.9"/>
		<line class="st3" x1="352.1" y1="164" x2="382" y2="38.8"/>
		<line class="st3" x1="582" y1="413.5" x2="408.3" y2="688.4"/>
		<line class="st3" x1="528.8" y1="307.2" x2="336.4" y2="203.1"/>
		<line class="st3" x1="394" y1="569" x2="70.9" y2="338.8"/>
		<line class="st3" x1="711" y1="136.4" x2="675.8" y2="660.4"/>
		<line class="st3" x1="479.6" y1="439.1" x2="562" y2="650.7"/>
		<line class="st3" x1="422.6" y1="458.9" x2="266.2" y2="585.3"/>
		<line class="st3" x1="292.3" y1="465.7" x2="7.9" y2="446.3"/>
		<line class="st3" x1="111.3" y1="104.8" x2="161.9" y2="295.3"/>
		<line class="st3" x1="353.3" y1="12.2" x2="469.4" y2="489.1"/>
		<line class="st3" x1="673.2" y1="306.6" x2="718" y2="279.8"/>
		<line class="st3" x1="269.4" y1="197.9" x2="656.8" y2="639.3"/>
		<line class="st3" x1="488.6" y1="435.7" x2="304.2" y2="537"/>
		<line class="st3" x1="332.3" y1="119.2" x2="683" y2="393.3"/>
		<line class="st3" x1="698.7" y1="143.5" x2="87.7" y2="36.4"/>
		<line class="st3" x1="113.1" y1="567.5" x2="713.6" y2="640.8"/>
		<line class="st3" x1="174.5" y1="487.2" x2="249.6" y2="649"/>
		<line class="st3" x1="490.7" y1="52" x2="651.8" y2="127.3"/>
		<line class="st3" x1="586.2" y1="305.3" x2="240.5" y2="483.3"/>
		<line class="st3" x1="665.1" y1="402.7" x2="620.7" y2="336.9"/>
		<line class="st3" x1="10.8" y1="378" x2="573.5" y2="154.5"/>
		<line class="st3" x1="517.8" y1="422.5" x2="286.9" y2="446.2"/>
		<line class="st3" x1="20.5" y1="349.8" x2="276.2" y2="192.5"/>
		<line class="st3" x1="267.1" y1="506.6" x2="412.8" y2="605.4"/>
		<line class="st3" x1="535.5" y1="330.1" x2="729.1" y2="301.9"/>
		<line class="st3" x1="136" y1="40.1" x2="465.8" y2="170.5"/>
		<line class="st3" x1="84.4" y1="723.8" x2="535.6" y2="484.2"/>
		<line class="st3" x1="647.2" y1="581.9" x2="108.5" y2="531.2"/>
		<line class="st3" x1="515.2" y1="531.7" x2="669.9" y2="698.2"/>
		<line class="st3" x1="21.8" y1="341.9" x2="116.9" y2="488.1"/>
		<line class="st3" x1="409.8" y1="260.9" x2="401.4" y2="196.8"/>
		<line class="st3" x1="356.7" y1="381" x2="307.6" y2="722.1"/>
		<line class="st3" x1="564.8" y1="108.1" x2="503.2" y2="452"/>
		<line class="st3" x1="643.7" y1="81.2" x2="714.1" y2="15.9"/>
		<line class="st3" x1="405.5" y1="126.4" x2="577.7" y2="246"/>
		<line class="st3" x1="328.4" y1="616.2" x2="108" y2="514.4"/>
		<line class="st3" x1="156" y1="49.7" x2="343.3" y2="552.6"/>
		<line class="st3" x1="58.3" y1="633.5" x2="586.2" y2="278.2"/>
		<line class="st3" x1="153.4" y1="115.1" x2="322.2" y2="69.4"/>
		<line class="st3" x1="13.2" y1="465.4" x2="653.8" y2="582.3"/>
		<line class="st3" x1="440" y1="697" x2="113.9" y2="522.7"/>
		<line class="st3" x1="319.1" y1="555.7" x2="668.6" y2="612.8"/>
		<line class="st3" x1="623.8" y1="314.3" x2="531.7" y2="426.8"/>
		<line class="st3" x1="416.7" y1="19.5" x2="160.7" y2="679.9"/>
		<line class="st3" x1="183.7" y1="257.6" x2="30.8" y2="655"/>
		<line class="st3" x1="132.6" y1="633.6" x2="217.3" y2="89"/>
		<line class="st3" x1="517.8" y1="722.8" x2="400.9" y2="87.9"/>
		<line class="st3" x1="474" y1="176.7" x2="56.5" y2="309.5"/>
		<line class="st3" x1="216.5" y1="503.5" x2="634.8" y2="475.1"/>
		<line class="st3" x1="217" y1="174" x2="645.9" y2="57.2"/>
		<line class="st3" x1="535.2" y1="598.5" x2="294.9" y2="381.9"/>
		<line class="st3" x1="601.8" y1="358.7" x2="260.9" y2="119.5"/>
		<line class="st3" x1="511.8" y1="671.4" x2="595.7" y2="153.1"/>
		<line class="st3" x1="572.9" y1="161.9" x2="23.3" y2="118.1"/>
		<line class="st3" x1="266.7" y1="143.4" x2="660.4" y2="58.1"/>
		<line class="st3" x1="406.8" y1="659.2" x2="612.8" y2="380.3"/>
		<line class="st3" x1="153.8" y1="92.2" x2="505" y2="6"/>
		<line class="st3" x1="407.9" y1="703.8" x2="674.5" y2="717.4"/>
		<line class="st3" x1="285" y1="339.4" x2="169.3" y2="548.3"/>
		<line class="st3" x1="165.4" y1="178.6" x2="32.6" y2="684.1"/>
		<line class="st3" x1="569.6" y1="379.9" x2="5.3" y2="565.2"/>
		<line class="st3" x1="397" y1="622.7" x2="619" y2="289.8"/>
		<line class="st3" x1="676.7" y1="112.6" x2="325.9" y2="350.6"/>
		<line class="st3" x1="124.1" y1="27.8" x2="490.8" y2="530.7"/>
		<line class="st3" x1="88.2" y1="37.6" x2="579.3" y2="387.2"/>
		<line class="st3" x1="516" y1="716.8" x2="612.5" y2="659.6"/>
		<line class="st3" x1="203.1" y1="519.9" x2="485.4" y2="439.6"/>
		<line class="st3" x1="488.4" y1="102.6" x2="364.1" y2="105.4"/>
		<line class="st3" x1="335.8" y1="601.5" x2="485.5" y2="406.5"/>
		<line class="st3" x1="128.3" y1="19.8" x2="452.8" y2="119.1"/>
		<line class="st3" x1="110.1" y1="218.5" x2="560.3" y2="609.4"/>
		<line class="st3" x1="539" y1="154.4" x2="359" y2="335"/>
		<line class="st3" x1="704" y1="606" x2="111.3" y2="176.4"/>
		<line class="st3" x1="335.1" y1="201.7" x2="607" y2="607.6"/>
		<line class="st3" x1="298" y1="383.3" x2="84.6" y2="309.2"/>
		<line class="st3" x1="518.7" y1="589.4" x2="474.3" y2="384.2"/>
		<line class="st3" x1="433.6" y1="73.2" x2="412.6" y2="151.1"/>
		<line class="st3" x1="611.1" y1="91.2" x2="452.4" y2="195.3"/>
		<line class="st3" x1="384" y1="646.6" x2="165" y2="452.1"/>
		<line class="st3" x1="275.3" y1="494.2" x2="155.1" y2="545.9"/>
		<line class="st3" x1="701.7" y1="190.2" x2="599.9" y2="348.7"/>
		<line class="st3" x1="485.9" y1="187.3" x2="255" y2="16.3"/>
		<line class="st3" x1="271.1" y1="41.4" x2="293.4" y2="120"/>
		<line class="st3" x1="198.1" y1="427.6" x2="490.6" y2="223.6"/>
		<line class="st3" x1="537.5" y1="678.2" x2="213.3" y2="558.4"/>
		<line class="st3" x1="712.4" y1="485.9" x2="617.2" y2="282.1"/>
		<line class="st3" x1="329.9" y1="64.9" x2="502.7" y2="580"/>
		<line class="st3" x1="227.9" y1="646" x2="376.6" y2="224.7"/>
		<line class="st3" x1="670.5" y1="281.7" x2="259.2" y2="168.5"/>
		<line class="st3" x1="23.2" y1="323.7" x2="615.3" y2="543.7"/>
		<line class="st3" x1="507.9" y1="549.2" x2="479.9" y2="172.6"/>
		<line class="st3" x1="403.5" y1="156" x2="702.3" y2="594.8"/>
		<line class="st3" x1="488" y1="392.9" x2="622.7" y2="617.7"/>
		<line class="st3" x1="141.8" y1="353.8" x2="127.1" y2="156.2"/>
		<line class="st3" x1="266" y1="433" x2="158.7" y2="275.2"/>
		<line class="st3" x1="27.9" y1="625.3" x2="702.8" y2="313.2"/>
		<line class="st3" x1="263.9" y1="101.3" x2="504.7" y2="282.2"/>
		<line class="st3" x1="603.5" y1="87.9" x2="472.9" y2="259.3"/>
		<line class="st3" x1="165.4" y1="565.5" x2="276.4" y2="329.4"/>
		<line class="st3" x1="41.9" y1="665.6" x2="377.9" y2="529.8"/>
		<line class="st3" x1="700.7" y1="260.1" x2="690" y2="61.6"/>
		<line class="st3" x1="248.9" y1="369.7" x2="467.2" y2="267.1"/>
		<line class="st3" x1="137.3" y1="45.7" x2="563" y2="284.5"/>
		<line class="st3" x1="337" y1="396.3" x2="678.6" y2="11.8"/>
		<line class="st3" x1="301.4" y1="255.7" x2="484.7" y2="270.8"/>
		<line class="st3" x1="388.3" y1="526.4" x2="507.4" y2="160.3"/>
		<line class="st3" x1="507.3" y1="250.2" x2="625.4" y2="118"/>
		<line class="st3" x1="38.8" y1="206.3" x2="596.4" y2="47.3"/>
		<line class="st3" x1="715.2" y1="389" x2="479.8" y2="588.9"/>
		<line class="st3" x1="369.8" y1="112.5" x2="485.1" y2="202.8"/>
		<line class="st3" x1="497.9" y1="91.8" x2="143.7" y2="448.3"/>
		<line class="st3" x1="48.3" y1="154.9" x2="518.6" y2="596.5"/>
		<line class="st3" x1="275.8" y1="619" x2="27.1" y2="166.4"/>
		<line class="st3" x1="39.4" y1="316.4" x2="261.1" y2="132"/>
		<line class="st3" x1="368.7" y1="635.2" x2="545.7" y2="685"/>
		<line class="st3" x1="640.8" y1="650.1" x2="323.7" y2="242.7"/>
		<line class="st3" x1="26.7" y1="612.1" x2="653.8" y2="75"/>
		<line class="st3" x1="599" y1="324.8" x2="518.4" y2="393.8"/>
		<line class="st3" x1="220.8" y1="203.3" x2="120.5" y2="534.7"/>
		<line class="st3" x1="99.2" y1="354.3" x2="108.7" y2="671.1"/>
		<line class="st3" x1="147.2" y1="321.8" x2="540.3" y2="595.2"/>
		<line class="st3" x1="539.7" y1="685.5" x2="590.5" y2="644.9"/>
		<line class="st3" x1="649.7" y1="435.1" x2="389" y2="570.8"/>
		<line class="st3" x1="289" y1="122" x2="170.3" y2="522.3"/>
		<line class="st3" x1="399" y1="678.6" x2="20.7" y2="531.1"/>
		<line class="st3" x1="311.5" y1="718.8" x2="689.8" y2="83.6"/>
		<line class="st3" x1="623.3" y1="355.9" x2="18.1" y2="271.9"/>
		<line class="st3" x1="595.9" y1="130.6" x2="245.3" y2="56.5"/>
		<line class="st3" x1="236.9" y1="361.8" x2="118.1" y2="480.1"/>
		<line class="st3" x1="390" y1="114.4" x2="482.5" y2="514.9"/>
		<line class="st3" x1="75" y1="119.8" x2="152.1" y2="440.5"/>
		<line class="st3" x1="169.8" y1="302.1" x2="594" y2="690.3"/>
		<line class="st3" x1="272.9" y1="708.4" x2="50.5" y2="355.6"/>
		<line class="st3" x1="370.4" y1="611" x2="390.4" y2="610.9"/>
		<line class="st3" x1="402.2" y1="572.7" x2="510.5" y2="5.4"/>
		<line class="st3" x1="378" y1="116.6" x2="35.2" y2="490.8"/>
		<line class="st3" x1="224.9" y1="722.6" x2="628" y2="72.1"/>
		<line class="st3" x1="727.4" y1="469.9" x2="685.1" y2="319.1"/>
		<line class="st3" x1="500" y1="355.4" x2="289" y2="257.3"/>
		<line class="st3" x1="643.4" y1="589.8" x2="252.9" y2="573.9"/>
		<line class="st3" x1="450.6" y1="719.7" x2="215.5" y2="84.5"/>
		<line class="st3" x1="578.3" y1="359.8" x2="435.6" y2="45.9"/>
		<line class="st3" x1="521.1" y1="23.7" x2="338.5" y2="381.9"/>
		<line class="st3" x1="493.9" y1="466" x2="458.2" y2="129.6"/>
		<line class="st3" x1="87.7" y1="432.9" x2="178.9" y2="268.5"/>
		<line class="st3" x1="704.4" y1="604.4" x2="376.7" y2="454"/>
		<line class="st3" x1="592.2" y1="538.7" x2="400.8" y2="30.8"/>
		<line class="st3" x1="452.7" y1="51.1" x2="522.7" y2="721.7"/>
		<line class="st3" x1="505.4" y1="263.6" x2="520.1" y2="188.2"/>
		<line class="st3" x1="690" y1="214.5" x2="505.8" y2="183.6"/>
		<line class="st3" x1="691.1" y1="538.2" x2="444.4" y2="435"/>
		<line class="st3" x1="348.5" y1="596.5" x2="39.1" y2="135.6"/>
		<line class="st3" x1="52.9" y1="633" x2="117.3" y2="530.8"/>
		<line class="st3" x1="108.7" y1="570.8" x2="460.4" y2="561.5"/>
		<line class="st3" x1="267.8" y1="99.5" x2="26.6" y2="579.5"/>
		<line class="st3" x1="237.3" y1="249.9" x2="6.2" y2="182.5"/>
		<line class="st3" x1="101.8" y1="368.7" x2="148.5" y2="529.8"/>
		<line class="st3" x1="347.2" y1="231.2" x2="672.1" y2="623.4"/>
		<line class="st3" x1="89.5" y1="130.4" x2="675.7" y2="632.2"/>
		<line class="st3" x1="119.7" y1="114.4" x2="626.4" y2="503.3"/>
		<line class="st3" x1="102.3" y1="505.1" x2="324.4" y2="104.7"/>
		<line class="st3" x1="487.8" y1="220.9" x2="47.2" y2="637.4"/>
		<line class="st3" x1="273.2" y1="667.4" x2="367.5" y2="143.7"/>
		<line class="st3" x1="505.4" y1="144.5" x2="511.7" y2="377.1"/>
		<line class="st3" x1="105.1" y1="96.6" x2="643.4" y2="238.9"/>
		<line class="st3" x1="571.4" y1="705.2" x2="718.3" y2="687.4"/>
		<line class="st3" x1="582.2" y1="54.5" x2="312.9" y2="135.3"/>
		<line class="st3" x1="380.2" y1="312.2" x2="291.9" y2="261"/>
		<line class="st3" x1="645.9" y1="234.1" x2="693.1" y2="177.2"/>
		<line class="st3" x1="270.5" y1="294" x2="208.6" y2="568.5"/>
		<line class="st3" x1="99.2" y1="648.2" x2="663.4" y2="379.9"/>
		<line class="st3" x1="26.4" y1="332.5" x2="563.1" y2="303.8"/>
		<line class="st3" x1="350" y1="432.3" x2="195.4" y2="288.1"/>
		<line class="st3" x1="228" y1="302.8" x2="163" y2="613.8"/>
		<line class="st3" x1="727.9" y1="354" x2="179" y2="600.4"/>
		<line class="st3" x1="552.7" y1="642.5" x2="638.2" y2="634.8"/>
		<line class="st3" x1="121.7" y1="291.6" x2="461" y2="376.8"/>
	</g>
	<g id="layer3">
		<line class="st0" x1="156.8" y1="688.5" x2="243" y2="187.4"/>
		<line class="st0" x1="119.4" y1="291.2" x2="333.2" y2="326.4"/>
		<line class="st0" x1="380.5" y1="104.2" x2="504.5" y2="78.6"/>
		<line class="st0" x1="643.3" y1="146.3" x2="176.6" y2="660.8"/>
		<line class="st0" x1="365.7" y1="49.2" x2="418.7" y2="219.4"/>
		<line class="st0" x1="303.8" y1="262.3" x2="345.8" y2="476"/>
		<line class="st0" x1="672" y1="641.1" x2="114.9" y2="556.7"/>
		<line class="st0" x1="46" y1="633.5" x2="227" y2="453.9"/>
		<line class="st0" x1="213.8" y1="418.9" x2="625.2" y2="227.5"/>
		<line class="st0" x1="186" y1="129.7" x2="424.1" y2="68.7"/>
		<line class="st0" x1="651.3" y1="690.5" x2="614.4" y2="211.8"/>
		<line class="st0" x1="572.4" y1="492.7" x2="46.4" y2="159.4"/>
		<line class="st0" x1="237.3" y1="609.6" x2="187" y2="556.4"/>
		<line class="st0" x1="643.5" y1="339.2" x2="713.5" y2="478.9"/>
		<line class="st0" x1="92.4" y1="148.7" x2="433.8" y2="119.7"/>
		<line class="st0" x1="645.2" y1="703.6" x2="621.7" y2="453.2"/>
		<line class="st0" x1="172.6" y1="712.3" x2="564" y2="646.1"/>
		<line class="st0" x1="330.9" y1="573.9" x2="698.5" y2="592.5"/>
		<line class="st0" x1="149.5" y1="595.7" x2="382.9" y2="601.3"/>
		<line class="st0" x1="692.3" y1="398.4" x2="519" y2="220.5"/>
		<line class="st0" x1="459.5" y1="309.4" x2="114.2" y2="559.3"/>
		<line class="st0" x1="349.2" y1="723" x2="597.9" y2="446.9"/>
		<line class="st0" x1="259.5" y1="238.8" x2="409.9" y2="9.5"/>
		<line class="st0" x1="588.3" y1="480.2" x2="654.5" y2="567.2"/>
		<line class="st0" x1="673.2" y1="19.2" x2="71.9" y2="232.1"/>
		<line class="st0" x1="562.1" y1="527.6" x2="490.1" y2="421.3"/>
		<line class="st0" x1="206.4" y1="487.9" x2="190.9" y2="723.4"/>
		<line class="st0" x1="264.8" y1="498" x2="638" y2="108.6"/>
		<line class="st0" x1="182" y1="2" x2="493" y2="426"/>
		<line class="st0" x1="123.1" y1="334" x2="361.2" y2="544.6"/>
		<line class="st0" x1="605.5" y1="540.3" x2="287" y2="716"/>
		<line class="st0" x1="552" y1="148.2" x2="200.8" y2="437.4"/>
		<line class="st0" x1="125.8" y1="398.7" x2="37.5" y2="13.8"/>
		<line class="st0" x1="641" y1="367.8" x2="276.6" y2="451.2"/>
		<line class="st0" x1="420.6" y1="168.2" x2="525.7" y2="200.6"/>
		<line class="st0" x1="702.4" y1="311.2" x2="260.1" y2="354.9"/>
		<line class="st0" x1="631.2" y1="448.9" x2="407.1" y2="673"/>
		<line class="st0" x1="11.2" y1="144.3" x2="722.5" y2="123"/>
		<line class="st0" x1="291.6" y1="103.7" x2="508.8" y2="503.3"/>
		<line class="st0" x1="88.5" y1="102.7" x2="560" y2="82.1"/>
		<line class="st0" x1="81.5" y1="262.7" x2="277.6" y2="344.7"/>
		<line class="st0" x1="265.1" y1="602.8" x2="321.8" y2="501.1"/>
		<line class="st0" x1="539.3" y1="623.5" x2="393.4" y2="310.4"/>
		<line class="st0" x1="245" y1="153.9" x2="391.8" y2="707.4"/>
		<line class="st0" x1="426.4" y1="272.8" x2="330.8" y2="612.9"/>
		<line class="st0" x1="618.4" y1="211.4" x2="300.3" y2="344.9"/>
		<line class="st0" x1="686" y1="29.5" x2="27.1" y2="148.3"/>
		<line class="st0" x1="183.9" y1="89.4" x2="217.9" y2="92.2"/>
		<line class="st0" x1="572.3" y1="501.3" x2="35.6" y2="250.5"/>
		<line class="st0" x1="12.3" y1="488.8" x2="109.6" y2="464.4"/>
		<line class="st0" x1="476.3" y1="538.7" x2="697.4" y2="700.6"/>
		<line class="st0" x1="450" y1="554" x2="654.7" y2="46"/>
		<line class="st0" x1="353.5" y1="85.9" x2="175.4" y2="383.6"/>
		<line class="st0" x1="490.4" y1="649.9" x2="364.1" y2="678.5"/>
		<line class="st0" x1="183.6" y1="6.4" x2="268.7" y2="496"/>
		<line class="st0" x1="205.6" y1="115.3" x2="624.5" y2="516.3"/>
		<line class="st0" x1="519.8" y1="26.2" x2="33.5" y2="182.7"/>
		<line class="st0" x1="23.6" y1="184.1" x2="335.3" y2="674.1"/>
		<line class="st0" x1="60.4" y1="361.5" x2="276.7" y2="23.5"/>
		<line class="st0" x1="17.9" y1="360.4" x2="90.5" y2="541.2"/>
		<line class="st0" x1="269.5" y1="420.3" x2="356.9" y2="641.3"/>
		<line class="st0" x1="278.5" y1="593.5" x2="712.1" y2="115.2"/>
		<line class="st0" x1="519.5" y1="648.1" x2="60" y2="680"/>
		<line class="st0" x1="74.3" y1="32.6" x2="341.2" y2="109.8"/>
		<line class="st0" x1="665.7" y1="446.1" x2="704.8" y2="362.6"/>
		<line class="st0" x1="464.5" y1="467.6" x2="679.5" y2="462.3"/>
		<line class="st0" x1="596.7" y1="462" x2="529.5" y2="84.6"/>
		<line class="st0" x1="359.5" y1="154.8" x2="28.4" y2="473.9"/>
		<line class="st0" x1="654.6" y1="562.5" x2="22.6" y2="581.1"/>
		<line class="st0" x1="326.9" y1="405.3" x2="612.1" y2="173.3"/>
		<line class="st0" x1="148.6" y1="495.8" x2="134.4" y2="208"/>
		<line class="st0" x1="687.4" y1="691.4" x2="121.3" y2="259.4"/>
		<line class="st0" x1="663.1" y1="512.2" x2="403.5" y2="239.3"/>
		<line class="st0" x1="233.8" y1="696.4" x2="258.3" y2="51.8"/>
		<line class="st0" x1="68" y1="673.9" x2="477.5" y2="155.5"/>
		<line class="st0" x1="388.4" y1="154.9" x2="184.5" y2="115.6"/>
		<line class="st0" x1="177.8" y1="611.1" x2="491.6" y2="331.1"/>
		<line class="st0" x1="24.4" y1="108.2" x2="440.6" y2="590.9"/>
		<line class="st0" x1="705.1" y1="2.7" x2="171.8" y2="721"/>
		<line class="st0" x1="606" y1="645.3" x2="189.2" y2="29.5"/>
		<line class="st0" x1="135.2" y1="345.1" x2="267.8" y2="517.4"/>
		<line class="st0" x1="574.5" y1="27.3" x2="350.7" y2="259.9"/>
		<line class="st0" x1="534.8" y1="625.6" x2="201.3" y2="358"/>
		<line class="st0" x1="392" y1="338.9" x2="162.7" y2="103.3"/>
		<line class="st0" x1="16.1" y1="18" x2="460.5" y2="546.1"/>
		<line class="st0" x1="489.8" y1="515.6" x2="436.1" y2="582.6"/>
		<line class="st0" x1="292.7" y1="724.2" x2="139.6" y2="87.3"/>
		<line class="st0" x1="621.2" y1="667" x2="398.3" y2="422.2"/>
		<line class="st0" x1="384.3" y1="723.4" x2="268.4" y2="177.9"/>
		<line class="st0" x1="555.8" y1="465.7" x2="509.7" y2="400"/>
		<line class="st0" x1="561.2" y1="262.3" x2="59.3" y2="139.7"/>
		<line class="st0" x1="133" y1="695.8" x2="72.6" y2="435.2"/>
		<line class="st0" x1="35" y1="514.8" x2="717.1" y2="35.7"/>
		<line class="st0" x1="595.2" y1="446.8" x2="362.9" y2="608.2"/>
		<line class="st0" x1="170.3" y1="289.3" x2="104.6" y2="88.2"/>
		<line class="st0" x1="423.1" y1="577.7" x2="680.2" y2="127.3"/>
		<line class="st0" x1="468.1" y1="655.8" x2="417.6" y2="630"/>
		<line class="st0" x1="327" y1="605.1" x2="480.2" y2="723.6"/>
		<line class="st0" x1="87.8" y1="572.3" x2="398.5" y2="90.1"/>
		<line class="st0" x1="392.5" y1="478.8" x2="464.9" y2="327.4"/>
		<line class="st0" x1="321.8" y1="311.5" x2="506" y2="142.6"/>
		<line class="st0" x1="672.8" y1="457.1" x2="462.1" y2="71.6"/>
		<line class="st0" x1="574.9" y1="77.8" x2="453.4" y2="275.3"/>
		<line class="st0" x1="525" y1="32.7" x2="543.5" y2="548.6"/>
		<line class="st0" x1="491.7" y1="536.8" x2="455.3" y2="659.9"/>
		<line class="st0" x1="597.5" y1="107.9" x2="300.9" y2="518.6"/>
		<line class="st0" x1="616.2" y1="158.7" x2="492.8" y2="619"/>
		<line class="st0" x1="47.1" y1="191.7" x2="579.3" y2="89.5"/>
		<line class="st0" x1="383.7" y1="661.7" x2="20.4" y2="591.5"/>
		<line class="st0" x1="461.9" y1="361.8" x2="379" y2="573.5"/>
		<line class="st0" x1="517.7" y1="43.5" x2="351.9" y2="88.7"/>
		<line class="st0" x1="232.1" y1="533.7" x2="57.3" y2="235"/>
		<line class="st0" x1="632.7" y1="242.2" x2="556.7" y2="386.3"/>
		<line class="st0" x1="517.2" y1="473.2" x2="670.3" y2="11.5"/>
		<line class="st0" x1="323.7" y1="246.4" x2="342.5" y2="563.9"/>
		<line class="st0" x1="388.1" y1="369.8" x2="671.8" y2="263.2"/>
		<line class="st0" x1="627.8" y1="646.8" x2="551.5" y2="193.3"/>
		<line class="st0" x1="396.4" y1="275.4" x2="649.6" y2="712.8"/>
		<line class="st0" x1="384.5" y1="267.1" x2="647.9" y2="441.6"/>
		<line class="st0" x1="606.9" y1="576.3" x2="631.3" y2="703.7"/>
		<line class="st0" x1="552.3" y1="264.9" x2="86.8" y2="656.2"/>
		<line class="st0" x1="336.2" y1="428.6" x2="300.3" y2="237.6"/>
		<line class="st0" x1="468" y1="64.2" x2="97.6" y2="388.1"/>
		<line class="st0" x1="283.8" y1="113.7" x2="161.1" y2="711.2"/>
		<line class="st0" x1="390.9" y1="423.3" x2="660.7" y2="258.2"/>
		<line class="st0" x1="54.5" y1="705.5" x2="566.9" y2="311.4"/>
		<line class="st0" x1="534.9" y1="358" x2="315" y2="558.1"/>
		<line class="st0" x1="307.4" y1="111.3" x2="658.9" y2="660.4"/>
		<line class="st0" x1="532.8" y1="568" x2="437.7" y2="450"/>
		<line class="st0" x1="23.9" y1="720.9" x2="354.3" y2="327.7"/>
		<line class="st0" x1="259.6" y1="681" x2="678.8" y2="327.5"/>
		<line class="st0" x1="359.6" y1="723.5" x2="157.7" y2="509.4"/>
		<line class="st0" x1="13.6" y1="346.2" x2="502.8" y2="478.2"/>
		<line class="st0" x1="706.1" y1="534" x2="510.5" y2="273.4"/>
		<line class="st0" x1="484.6" y1="85.7" x2="196.7" y2="575.5"/>
		<line class="st0" x1="476.1" y1="651.7" x2="132.2" y2="652"/>
		<line class="st0" x1="317.7" y1="457.7" x2="594.7" y2="380.6"/>
		<line class="st0" x1="207.6" y1="604.4" x2="610.7" y2="135.9"/>
		<line class="st0" x1="476.3" y1="124.4" x2="587.9" y2="439.2"/>
		<line class="st0" x1="347" y1="36.2" x2="423.6" y2="676.6"/>
		<line class="st0" x1="549.6" y1="403.9" x2="456.8" y2="132.9"/>
		<line class="st0" x1="348.9" y1="10.5" x2="162.3" y2="666.5"/>
		<line class="st0" x1="522.6" y1="121.5" x2="66.9" y2="195"/>
		<line class="st0" x1="588.2" y1="633.5" x2="384.3" y2="137.5"/>
		<line class="st0" x1="701.5" y1="367.2" x2="355.2" y2="331"/>
		<line class="st0" x1="265.2" y1="702.4" x2="133.6" y2="120.2"/>
		<line class="st0" x1="668" y1="622.5" x2="48.9" y2="304"/>
		<line class="st0" x1="390.7" y1="173.4" x2="589.4" y2="51.2"/>
		<line class="st0" x1="451.5" y1="234" x2="235.7" y2="538.1"/>
		<line class="st0" x1="595.5" y1="674.7" x2="305.3" y2="366.8"/>
		<line class="st0" x1="266.2" y1="70" x2="247.5" y2="390.1"/>
		<line class="st0" x1="306.4" y1="513.9" x2="644" y2="301.7"/>
		<line class="st0" x1="60.3" y1="26.2" x2="517.1" y2="301.7"/>
		<line class="st0" x1="213.1" y1="66.5" x2="191.4" y2="172.3"/>
		<line class="st0" x1="456.6" y1="284.6" x2="370.4" y2="560.7"/>
		<line class="st0" x1="668.6" y1="505.1" x2="108.1" y2="705.7"/>
		<line class="st0" x1="354.5" y1="512.8" x2="180.3" y2="286.6"/>
		<line class="st0" x1="658" y1="484.3" x2="295.7" y2="78.4"/>
		<line class="st0" x1="386.7" y1="577.2" x2="581.8" y2="386.8"/>
		<line class="st0" x1="686" y1="305.3" x2="643.5" y2="541.2"/>
		<line class="st0" x1="171.6" y1="265.2" x2="500.7" y2="555.6"/>
		<line class="st0" x1="6.7" y1="242.7" x2="425.9" y2="211.2"/>
		<line class="st0" x1="415.8" y1="242.8" x2="114.8" y2="612.9"/>
		<line class="st0" x1="526.5" y1="162" x2="31.5" y2="58.7"/>
		<line class="st0" x1="682.4" y1="554.6" x2="594.5" y2="162.9"/>
		<line class="st0" x1="371.5" y1="26.6" x2="496.6" y2="285"/>
		<line class="st0" x1="702.1" y1="500.1" x2="155.9" y2="56.4"/>
		<line class="st0" x1="424.8" y1="417.7" x2="615.9" y2="124.6"/>
		<line class="st0" x1="246.7" y1="343.5" x2="531.6" y2="15.4"/>
		<line class="st0" x1="326" y1="579.3" x2="547.1" y2="4.7"/>
		<line class="st0" x1="350.1" y1="632.2" x2="609.7" y2="480.8"/>
		<line class="st0" x1="488.3" y1="412.6" x2="287.6" y2="646.7"/>
		<line class="st0" x1="13.3" y1="551.8" x2="377.5" y2="401.2"/>
		<line class="st0" x1="529.1" y1="74.9" x2="604.6" y2="457.5"/>
		<line class="st0" x1="152.8" y1="71.6" x2="604.7" y2="338.3"/>
		<line class="st0" x1="706.3" y1="663.3" x2="529.5" y2="372.9"/>
		<line class="st0" x1="498.4" y1="379.6" x2="256" y2="713.3"/>
		<line class="st0" x1="363.2" y1="202.6" x2="226.8" y2="254.2"/>
		<line class="st0" x1="663.4" y1="667" x2="240.9" y2="170.7"/>
		<line class="st0" x1="684.4" y1="536.3" x2="257.2" y2="649.5"/>
		<line class="st0" x1="57.7" y1="3.6" x2="644.7" y2="282"/>
		<line class="st0" x1="482.9" y1="206.8" x2="407.4" y2="142.3"/>
		<line class="st0" x1="196.2" y1="427.2" x2="238.4" y2="237.2"/>
		<line class="st0" x1="93.2" y1="538.3" x2="541.4" y2="85.8"/>
		<line class="st0" x1="13.7" y1="323.8" x2="668.6" y2="36.8"/>
		<line class="st0" x1="336.3" y1="714.5" x2="195.1" y2="336.5"/>
		<line class="st0" x1="111.9" y1="213.3" x2="612.2" y2="697.1"/>
		<line class="st0" x1="251.9" y1="694.8" x2="540.3" y2="48.6"/>
		<line class="st0" x1="237.7" y1="338.4" x2="507.1" y2="6.3"/>
		<line class="st0" x1="517.1" y1="328.9" x2="269.6" y2="572.8"/>
		<line class="st0" x1="353.5" y1="504.3" x2="391.4" y2="440.6"/>
		<line class="st0" x1="677.7" y1="444.5" x2="536.7" y2="363.2"/>
		<line class="st0" x1="655.3" y1="437.7" x2="380.1" y2="300.4"/>
		<line class="st0" x1="347.5" y1="329" x2="174.6" y2="138"/>
		<line class="st0" x1="285.6" y1="202.1" x2="609.4" y2="157.4"/>
		<line class="st0" x1="281.8" y1="30.8" x2="592.2" y2="251.1"/>
		<line class="st0" x1="135.2" y1="628.1" x2="718.7" y2="68.6"/>
		<line class="st0" x1="122.5" y1="155.7" x2="586.4" y2="53.2"/>
		<line class="st0" x1="107.7" y1="318.2" x2="642.2" y2="308.8"/>
		<line class="st0" x1="598.8" y1="14.3" x2="86.3" y2="436.4"/>
	</g>
	<rect x="1" y="1" class="st1" width="726.2" height="726.2"/>
</g>
<g>
	<g id="layer1_00000016073796969384017570000003821692799826316460_">
		<polygon class="st2" points="2112.8,154.3 2112.1,147.2 2110,140.4 2106.7,134.1 2102.2,128.6 2096.7,124.1 2090.4,120.8 
			2083.6,118.7 2076.6,118 2069.5,118.7 2062.7,120.8 2056.4,124.1 2050.9,128.6 2046.4,134.1 2043.1,140.4 2041,147.2 
			2040.3,154.3 2041,161.3 2043.1,168.1 2046.4,174.4 2050.9,179.9 2056.4,184.4 2062.7,187.7 2069.5,189.8 2076.6,190.5 
			2083.6,189.8 2090.4,187.7 2096.7,184.4 2102.2,179.9 2106.7,174.4 2110,168.1 2112.1,161.3 		"/>
		<line class="st2" x1="1664.1" y1="638.1" x2="1366" y2="552.4"/>
		<line class="st2" x1="1531.9" y1="252.3" x2="1418.4" y2="152.6"/>
		<line class="st2" x1="1738.5" y1="41.8" x2="1700" y2="629"/>
		<line class="st2" x1="1693.1" y1="571.8" x2="1304.5" y2="673.3"/>
		<line class="st2" x1="1853.5" y1="129.8" x2="1355.9" y2="699.6"/>
		<line class="st2" x1="1345.2" y1="686.9" x2="1223.4" y2="316.1"/>
		<line class="st2" x1="1608.8" y1="31.9" x2="1580.3" y2="395"/>
		<line class="st2" x1="1214.3" y1="101.4" x2="1391.7" y2="263.7"/>
		<line class="st2" x1="1397.7" y1="156.3" x2="1846.1" y2="371"/>
		<line class="st2" x1="1727.9" y1="156.6" x2="1733" y2="225.5"/>
		<line class="st2" x1="1329.4" y1="328.9" x2="1918.7" y2="412.6"/>
		<line class="st2" x1="1811.4" y1="125.5" x2="1440.7" y2="42.7"/>
		<line class="st2" x1="1722.5" y1="321.8" x2="1696.7" y2="58.8"/>
		<line class="st2" x1="1682.7" y1="511.6" x2="1911.4" y2="157.2"/>
		<line class="st2" x1="1554.7" y1="303.5" x2="1428.4" y2="400.1"/>
		<line class="st2" x1="1832" y1="222.9" x2="1833.8" y2="176.4"/>
		<line class="st2" x1="1760.2" y1="369.2" x2="1888.5" y2="655"/>
		<line class="st2" x1="1829.3" y1="273.1" x2="1782.5" y2="725.8"/>
		<line class="st2" x1="1263.8" y1="300.4" x2="1428.6" y2="313.2"/>
		<line class="st2" x1="1369.7" y1="579.7" x2="1433.9" y2="664.7"/>
		<line class="st2" x1="1263.7" y1="215.8" x2="1868.7" y2="235.5"/>
		<polygon class="st2" points="2112.8,154.3 2112.1,147.2 2110,140.4 2106.7,134.1 2102.2,128.6 2096.7,124.1 2090.4,120.8 
			2083.6,118.7 2076.6,118 2069.5,118.7 2062.7,120.8 2056.4,124.1 2050.9,128.6 2046.4,134.1 2043.1,140.4 2041,147.2 
			2040.3,154.3 2041,161.3 2043.1,168.1 2046.4,174.4 2050.9,179.9 2056.4,184.4 2062.7,187.7 2069.5,189.8 2076.6,190.5 
			2083.6,189.8 2090.4,187.7 2096.7,184.4 2102.2,179.9 2106.7,174.4 2110,168.1 2112.1,161.3 		"/>
		<line class="st2" x1="1856.2" y1="152.9" x2="1301" y2="724.5"/>
		<line class="st2" x1="1891.1" y1="218" x2="1588.3" y2="460"/>
		<line class="st2" x1="1659.5" y1="615.8" x2="1926.6" y2="715.4"/>
		<line class="st2" x1="1520.9" y1="412.7" x2="1486.9" y2="298.1"/>
		<line class="st2" x1="1245.4" y1="92.7" x2="1905.5" y2="549.2"/>
		<line class="st2" x1="1805.4" y1="357.5" x2="1500.9" y2="254.3"/>
		<line class="st2" x1="1817.3" y1="67.1" x2="1373.7" y2="224.3"/>
		<line class="st2" x1="1649.4" y1="126.7" x2="1467.6" y2="446.3"/>
		<line class="st2" x1="1768.1" y1="505.6" x2="1316.9" y2="660.4"/>
		<line class="st2" x1="1300.1" y1="604.6" x2="1661.5" y2="156.7"/>
		<line class="st2" x1="1305.3" y1="672.8" x2="1904.9" y2="80.5"/>
		<line class="st2" x1="1208.1" y1="702" x2="1305.8" y2="412.4"/>
		<line class="st2" x1="1673" y1="370" x2="1306.7" y2="559.4"/>
		<line class="st2" x1="1656.2" y1="302.3" x2="1318.2" y2="453.6"/>
		<line class="st2" x1="1293.1" y1="119.3" x2="1883.1" y2="219.7"/>
		<line class="st2" x1="1347.1" y1="164" x2="1580.3" y2="248.6"/>
		<polygon class="st2" points="2112.8,154.3 2112.1,147.2 2110,140.4 2106.7,134.1 2102.2,128.6 2096.7,124.1 2090.4,120.8 
			2083.6,118.7 2076.6,118 2069.5,118.7 2062.7,120.8 2056.4,124.1 2050.9,128.6 2046.4,134.1 2043.1,140.4 2041,147.2 
			2040.3,154.3 2041,161.3 2043.1,168.1 2046.4,174.4 2050.9,179.9 2056.4,184.4 2062.7,187.7 2069.5,189.8 2076.6,190.5 
			2083.6,189.8 2090.4,187.7 2096.7,184.4 2102.2,179.9 2106.7,174.4 2110,168.1 2112.1,161.3 		"/>
		<line class="st2" x1="1268.1" y1="205.1" x2="1323" y2="276.3"/>
		<line class="st2" x1="1617.8" y1="570.8" x2="1702" y2="138.7"/>
		<line class="st2" x1="1561.2" y1="201.7" x2="1812.3" y2="238.2"/>
		<line class="st2" x1="1744.7" y1="312.6" x2="1267.1" y2="544.1"/>
		<line class="st2" x1="1399.8" y1="124.4" x2="1312.9" y2="529.6"/>
		<line class="st2" x1="1784.7" y1="83.5" x2="1241.2" y2="574.1"/>
		<line class="st2" x1="1292.5" y1="293.2" x2="1621.5" y2="106.5"/>
		<line class="st2" x1="1452.7" y1="641" x2="1783.9" y2="373.1"/>
		<line class="st2" x1="1549.2" y1="678" x2="1864.6" y2="71.7"/>
		<line class="st2" x1="1513.5" y1="146.8" x2="1404.2" y2="620.3"/>
		<line class="st2" x1="1868" y1="413.5" x2="1244.7" y2="89.3"/>
		<line class="st2" x1="1635" y1="311.7" x2="1889.1" y2="110.5"/>
		<line class="st2" x1="1233.6" y1="362" x2="1257.4" y2="388.7"/>
		<line class="st2" x1="1347.6" y1="672.7" x2="1559.5" y2="250"/>
		<line class="st2" x1="1629.4" y1="547.8" x2="1783.3" y2="581.3"/>
		<line class="st2" x1="1390" y1="539.1" x2="1293.3" y2="184.8"/>
		<line class="st2" x1="1530.8" y1="733.1" x2="1429.8" y2="423.3"/>
		<line class="st2" x1="1272.7" y1="215.1" x2="1309.7" y2="629.4"/>
		<line class="st2" x1="1847.1" y1="674.6" x2="1355.2" y2="151.4"/>
		<polygon class="st2" points="2112.8,154.3 2112.1,147.2 2110,140.4 2106.7,134.1 2102.2,128.6 2096.7,124.1 2090.4,120.8 
			2083.6,118.7 2076.6,118 2069.5,118.7 2062.7,120.8 2056.4,124.1 2050.9,128.6 2046.4,134.1 2043.1,140.4 2041,147.2 
			2040.3,154.3 2041,161.3 2043.1,168.1 2046.4,174.4 2050.9,179.9 2056.4,184.4 2062.7,187.7 2069.5,189.8 2076.6,190.5 
			2083.6,189.8 2090.4,187.7 2096.7,184.4 2102.2,179.9 2106.7,174.4 2110,168.1 2112.1,161.3 		"/>
		<line class="st2" x1="1614.9" y1="514.4" x2="1240.4" y2="652.7"/>
		<line class="st2" x1="1758.4" y1="295" x2="1324.7" y2="448.7"/>
		<line class="st2" x1="1276.4" y1="398.1" x2="1463.8" y2="64.6"/>
		<line class="st2" x1="1852.8" y1="672.6" x2="1606.4" y2="385"/>
		<line class="st2" x1="1711.5" y1="466.3" x2="1575" y2="565.7"/>
		<line class="st2" x1="1887.5" y1="657.4" x2="1379.1" y2="488.4"/>
		<line class="st2" x1="1658.8" y1="436" x2="1878.7" y2="243.2"/>
		<line class="st2" x1="1783.1" y1="523.6" x2="1618.4" y2="44.6"/>
		<line class="st2" x1="1789.5" y1="391.6" x2="1856.4" y2="154.6"/>
		<line class="st2" x1="1694.8" y1="98.2" x2="1435.8" y2="484.5"/>
		<line class="st2" x1="1329.1" y1="581.2" x2="1348.5" y2="34.3"/>
		<line class="st2" x1="1322.9" y1="316" x2="1635.6" y2="598.2"/>
		<line class="st2" x1="1438.1" y1="316" x2="1436.6" y2="536.6"/>
		<line class="st2" x1="1663.9" y1="332" x2="1841.7" y2="485.6"/>
		<line class="st2" x1="1691.6" y1="450.1" x2="1803.2" y2="361"/>
		<line class="st2" x1="1331.5" y1="551.2" x2="1488.2" y2="574.6"/>
		<line class="st2" x1="1689.3" y1="46.7" x2="1425" y2="216.3"/>
		<line class="st2" x1="1267.4" y1="649.4" x2="1316" y2="560.7"/>
		<line class="st2" x1="1333.6" y1="347.6" x2="1589.3" y2="413.3"/>
		<line class="st2" x1="1467" y1="442.5" x2="1789.8" y2="177"/>
		<line class="st2" x1="1441.2" y1="337.1" x2="1641.2" y2="65.6"/>
		<line class="st2" x1="1538.5" y1="81.6" x2="1671.2" y2="221.4"/>
		<line class="st2" x1="1684.1" y1="313.6" x2="1410" y2="342.6"/>
		<polygon class="st2" points="2112.8,154.3 2112.1,147.2 2110,140.4 2106.7,134.1 2102.2,128.6 2096.7,124.1 2090.4,120.8 
			2083.6,118.7 2076.6,118 2069.5,118.7 2062.7,120.8 2056.4,124.1 2050.9,128.6 2046.4,134.1 2043.1,140.4 2041,147.2 
			2040.3,154.3 2041,161.3 2043.1,168.1 2046.4,174.4 2050.9,179.9 2056.4,184.4 2062.7,187.7 2069.5,189.8 2076.6,190.5 
			2083.6,189.8 2090.4,187.7 2096.7,184.4 2102.2,179.9 2106.7,174.4 2110,168.1 2112.1,161.3 		"/>
		<line class="st2" x1="1913.4" y1="435" x2="1306" y2="601"/>
		<line class="st2" x1="1846.2" y1="503.4" x2="1509.8" y2="291"/>
		<line class="st2" x1="1859.3" y1="94.4" x2="1629.8" y2="161.6"/>
		<line class="st2" x1="1598.5" y1="91.8" x2="1737.1" y2="81.9"/>
		<line class="st2" x1="1662.3" y1="687" x2="1901.6" y2="115.9"/>
		<line class="st2" x1="1361" y1="28.2" x2="1527" y2="501.4"/>
		<line class="st2" x1="1501.6" y1="634.6" x2="1891.1" y2="186.1"/>
		<line class="st2" x1="1923" y1="625.8" x2="1340.4" y2="531.5"/>
		<line class="st2" x1="1742.3" y1="131.7" x2="1289.3" y2="298.8"/>
		<line class="st2" x1="1773.2" y1="127.6" x2="1318.7" y2="133.5"/>
		<line class="st2" x1="1807.1" y1="490.7" x2="1473.3" y2="521.3"/>
		<line class="st2" x1="1552.7" y1="225.8" x2="1554.2" y2="595.1"/>
		<line class="st2" x1="1485.6" y1="696.1" x2="1785.2" y2="716.5"/>
		<line class="st2" x1="1540.3" y1="509.5" x2="1529" y2="452"/>
		<line class="st2" x1="1516.3" y1="682.9" x2="1823.8" y2="66.2"/>
		<line class="st2" x1="1917.3" y1="287.2" x2="1662.1" y2="675.7"/>
		<line class="st2" x1="1854.8" y1="662.5" x2="1465.2" y2="445.1"/>
		<polygon class="st2" points="2112.8,154.3 2112.1,147.2 2110,140.4 2106.7,134.1 2102.2,128.6 2096.7,124.1 2090.4,120.8 
			2083.6,118.7 2076.6,118 2069.5,118.7 2062.7,120.8 2056.4,124.1 2050.9,128.6 2046.4,134.1 2043.1,140.4 2041,147.2 
			2040.3,154.3 2041,161.3 2043.1,168.1 2046.4,174.4 2050.9,179.9 2056.4,184.4 2062.7,187.7 2069.5,189.8 2076.6,190.5 
			2083.6,189.8 2090.4,187.7 2096.7,184.4 2102.2,179.9 2106.7,174.4 2110,168.1 2112.1,161.3 		"/>
		<line class="st2" x1="1788.4" y1="203.3" x2="1827.7" y2="22.5"/>
		<line class="st2" x1="1596.2" y1="212.6" x2="1766.2" y2="413.5"/>
		<line class="st2" x1="1387.1" y1="200.5" x2="1617.2" y2="721"/>
		<line class="st2" x1="1614.9" y1="112.9" x2="1378.7" y2="577.4"/>
		<line class="st2" x1="1402.3" y1="366.5" x2="1922.6" y2="440.5"/>
		<line class="st2" x1="1530.1" y1="483.9" x2="1637.8" y2="452.9"/>
		<line class="st2" x1="1243.1" y1="148.3" x2="1862.4" y2="727"/>
		<line class="st2" x1="1674.7" y1="465.4" x2="1238.8" y2="368"/>
		<line class="st2" x1="1413" y1="117.5" x2="1618.9" y2="514.8"/>
		<line class="st2" x1="1799.9" y1="510.4" x2="1607.4" y2="245.7"/>
		<line class="st2" x1="1595.2" y1="569.4" x2="1249.9" y2="507.7"/>
		<line class="st2" x1="1739.3" y1="364.5" x2="1903.6" y2="344"/>
		<line class="st2" x1="1578" y1="170.6" x2="1700.2" y2="453"/>
		<line class="st2" x1="1887.8" y1="291" x2="1524" y2="717.3"/>
		<line class="st2" x1="1781.9" y1="93.1" x2="1274" y2="200"/>
		<line class="st2" x1="1632" y1="174.7" x2="1410.9" y2="624.4"/>
		<line class="st2" x1="1517.4" y1="153.9" x2="1553.7" y2="338"/>
		<line class="st2" x1="1223.6" y1="217.7" x2="1753.4" y2="690.4"/>
		<polygon class="st2" points="2112.8,154.3 2112.1,147.2 2110,140.4 2106.7,134.1 2102.2,128.6 2096.7,124.1 2090.4,120.8 
			2083.6,118.7 2076.6,118 2069.5,118.7 2062.7,120.8 2056.4,124.1 2050.9,128.6 2046.4,134.1 2043.1,140.4 2041,147.2 
			2040.3,154.3 2041,161.3 2043.1,168.1 2046.4,174.4 2050.9,179.9 2056.4,184.4 2062.7,187.7 2069.5,189.8 2076.6,190.5 
			2083.6,189.8 2090.4,187.7 2096.7,184.4 2102.2,179.9 2106.7,174.4 2110,168.1 2112.1,161.3 		"/>
		<line class="st2" x1="1566.2" y1="170.8" x2="1901.5" y2="283.7"/>
		<line class="st2" x1="1393.2" y1="315.1" x2="1359.4" y2="378.5"/>
		<line class="st2" x1="1317.8" y1="379.1" x2="1730.7" y2="167.2"/>
		<line class="st2" x1="1280.4" y1="444.6" x2="1918.2" y2="15.6"/>
		<line class="st2" x1="1739.6" y1="350.1" x2="1723.1" y2="562.1"/>
		<line class="st2" x1="1887.1" y1="503.1" x2="1794.8" y2="135.7"/>
		<line class="st2" x1="1336.3" y1="21" x2="1922.2" y2="512.6"/>
		<line class="st2" x1="1333.5" y1="244" x2="1808.4" y2="52.7"/>
		<line class="st2" x1="1304.7" y1="94.4" x2="1666.4" y2="400.1"/>
		<line class="st2" x1="1884.7" y1="26.9" x2="1324" y2="563"/>
		<line class="st2" x1="1738.9" y1="377.6" x2="1780.3" y2="718.3"/>
		<line class="st2" x1="1683.9" y1="249.7" x2="1682.6" y2="278.8"/>
		<line class="st2" x1="1891.9" y1="28.1" x2="1542.7" y2="694.1"/>
		<line class="st2" x1="1786.3" y1="17.9" x2="1759.6" y2="416.2"/>
		<line class="st2" x1="1551.5" y1="348.2" x2="1371.6" y2="236.9"/>
		<line class="st2" x1="1245.6" y1="199.6" x2="1374.1" y2="373"/>
		<line class="st2" x1="1794.1" y1="180.9" x2="1710.3" y2="141.6"/>
		<line class="st2" x1="1490.7" y1="505" x2="1745.8" y2="117.7"/>
		<polygon class="st2" points="2112.8,154.3 2112.1,147.2 2110,140.4 2106.7,134.1 2102.2,128.6 2096.7,124.1 2090.4,120.8 
			2083.6,118.7 2076.6,118 2069.5,118.7 2062.7,120.8 2056.4,124.1 2050.9,128.6 2046.4,134.1 2043.1,140.4 2041,147.2 
			2040.3,154.3 2041,161.3 2043.1,168.1 2046.4,174.4 2050.9,179.9 2056.4,184.4 2062.7,187.7 2069.5,189.8 2076.6,190.5 
			2083.6,189.8 2090.4,187.7 2096.7,184.4 2102.2,179.9 2106.7,174.4 2110,168.1 2112.1,161.3 		"/>
		<line class="st2" x1="1456.1" y1="107.8" x2="1229.7" y2="39.8"/>
		<line class="st2" x1="1328.4" y1="320.9" x2="1245.6" y2="576"/>
		<line class="st2" x1="1418.7" y1="563.9" x2="1371.7" y2="205.1"/>
		<line class="st2" x1="1211.7" y1="225.9" x2="1883.1" y2="339.6"/>
		<line class="st2" x1="1431.7" y1="313" x2="1641.8" y2="358.7"/>
		<line class="st2" x1="1786.3" y1="357.1" x2="1279.5" y2="334.4"/>
		<line class="st2" x1="1576.6" y1="142" x2="1642.8" y2="30.3"/>
		<line class="st2" x1="1863.1" y1="281.6" x2="1445.5" y2="327.9"/>
		<line class="st2" x1="1681.3" y1="206.1" x2="1351.4" y2="514.1"/>
		<line class="st2" x1="1749.7" y1="217.7" x2="1584.2" y2="25.3"/>
		<line class="st2" x1="1327.8" y1="109.3" x2="1486.6" y2="339.7"/>
		<line class="st2" x1="1777.7" y1="109.4" x2="1363.1" y2="300.6"/>
		<line class="st2" x1="1468.6" y1="212.6" x2="1443.9" y2="645.6"/>
		<line class="st2" x1="1748.9" y1="64.1" x2="1267.1" y2="392.3"/>
		<line class="st2" x1="1717.2" y1="322.7" x2="1661.4" y2="494.2"/>
		<line class="st2" x1="1867.7" y1="191.4" x2="1690.1" y2="11.2"/>
		<line class="st2" x1="1737" y1="53.8" x2="1527.9" y2="601.7"/>
		<line class="st2" x1="1247" y1="585.8" x2="1888.9" y2="192.6"/>
		<line class="st2" x1="1836.9" y1="281.5" x2="1766.2" y2="249.8"/>
		<line class="st2" x1="1889.1" y1="559.4" x2="1548.8" y2="464.8"/>
		<polygon class="st2" points="2112.8,154.3 2112.1,147.2 2110,140.4 2106.7,134.1 2102.2,128.6 2096.7,124.1 2090.4,120.8 
			2083.6,118.7 2076.6,118 2069.5,118.7 2062.7,120.8 2056.4,124.1 2050.9,128.6 2046.4,134.1 2043.1,140.4 2041,147.2 
			2040.3,154.3 2041,161.3 2043.1,168.1 2046.4,174.4 2050.9,179.9 2056.4,184.4 2062.7,187.7 2069.5,189.8 2076.6,190.5 
			2083.6,189.8 2090.4,187.7 2096.7,184.4 2102.2,179.9 2106.7,174.4 2110,168.1 2112.1,161.3 		"/>
		<line class="st2" x1="1481.8" y1="708.3" x2="1311" y2="519.1"/>
		<line class="st2" x1="1207.9" y1="380.4" x2="1717.4" y2="385.8"/>
		<line class="st2" x1="1333.2" y1="356.2" x2="1529.8" y2="632"/>
		<line class="st2" x1="1265.8" y1="394.1" x2="1420.6" y2="509.8"/>
		<line class="st2" x1="1467.6" y1="337.1" x2="1725.2" y2="16.7"/>
		<line class="st2" x1="1428.4" y1="160.5" x2="1314.2" y2="418.1"/>
		<line class="st2" x1="1420.1" y1="492.9" x2="1213.6" y2="612.6"/>
		<line class="st2" x1="1326" y1="192.9" x2="1831.1" y2="572.2"/>
		<line class="st2" x1="1279.9" y1="144.6" x2="1790.5" y2="191.1"/>
		<line class="st2" x1="1207.8" y1="461.7" x2="1619.2" y2="40.1"/>
		<line class="st2" x1="1713.7" y1="13" x2="1487.9" y2="593.9"/>
		<line class="st2" x1="1628" y1="699.8" x2="1550.1" y2="62.1"/>
		<line class="st2" x1="1523" y1="699.4" x2="1470.3" y2="328.4"/>
		<line class="st2" x1="1894.9" y1="717.6" x2="1558.6" y2="243.8"/>
		<line class="st2" x1="1687.6" y1="707.8" x2="1287.6" y2="309.9"/>
		<line class="st2" x1="1679.4" y1="413.5" x2="1555.2" y2="381.3"/>
		<line class="st2" x1="1500.7" y1="297.9" x2="1869.1" y2="246.3"/>
		<line class="st2" x1="1509.4" y1="203.9" x2="1804.4" y2="459"/>
		<polygon class="st2" points="2112.8,154.3 2112.1,147.2 2110,140.4 2106.7,134.1 2102.2,128.6 2096.7,124.1 2090.4,120.8 
			2083.6,118.7 2076.6,118 2069.5,118.7 2062.7,120.8 2056.4,124.1 2050.9,128.6 2046.4,134.1 2043.1,140.4 2041,147.2 
			2040.3,154.3 2041,161.3 2043.1,168.1 2046.4,174.4 2050.9,179.9 2056.4,184.4 2062.7,187.7 2069.5,189.8 2076.6,190.5 
			2083.6,189.8 2090.4,187.7 2096.7,184.4 2102.2,179.9 2106.7,174.4 2110,168.1 2112.1,161.3 		"/>
		<line class="st2" x1="1454" y1="647.4" x2="1701.6" y2="471.4"/>
		<line class="st2" x1="1625.1" y1="15.2" x2="1821.2" y2="160.9"/>
		<line class="st2" x1="1380.7" y1="76.5" x2="1374.2" y2="77.9"/>
		<line class="st2" x1="1647.7" y1="451.5" x2="1527.4" y2="414.2"/>
		<line class="st2" x1="1661.5" y1="575.2" x2="1777.9" y2="717.7"/>
		<line class="st2" x1="1593.5" y1="304.3" x2="1523" y2="87.1"/>
		<line class="st2" x1="1749.9" y1="153.5" x2="1714.7" y2="419.8"/>
		<line class="st2" x1="1917.9" y1="265.2" x2="1805.9" y2="366.1"/>
		<line class="st2" x1="1212.1" y1="671.6" x2="1508.3" y2="232.5"/>
		<line class="st2" x1="1552.5" y1="534.4" x2="1473.1" y2="86"/>
		<line class="st2" x1="1251.4" y1="505.6" x2="1898.4" y2="103"/>
		<line class="st2" x1="1713.2" y1="583.8" x2="1629.5" y2="641"/>
		<line class="st2" x1="1241.4" y1="146.4" x2="1324.3" y2="455.9"/>
		<line class="st2" x1="1240.3" y1="618" x2="1552" y2="357.8"/>
		<line class="st2" x1="1875.5" y1="192.9" x2="1458.5" y2="688.2"/>
		<line class="st2" x1="1864.3" y1="186.9" x2="1812.4" y2="300.8"/>
		<line class="st2" x1="1710.1" y1="578.8" x2="1490.3" y2="576.2"/>
		<line class="st2" x1="1822.1" y1="592" x2="1313.3" y2="80.6"/>
		<line class="st2" x1="1224.3" y1="9.3" x2="1867.2" y2="147.7"/>
		<line class="st2" x1="1521.6" y1="223.2" x2="1498.9" y2="606.9"/>
		<line class="st2" x1="1388.6" y1="631.4" x2="1774.2" y2="110.7"/>
		<polygon class="st2" points="2112.8,154.3 2112.1,147.2 2110,140.4 2106.7,134.1 2102.2,128.6 2096.7,124.1 2090.4,120.8 
			2083.6,118.7 2076.6,118 2069.5,118.7 2062.7,120.8 2056.4,124.1 2050.9,128.6 2046.4,134.1 2043.1,140.4 2041,147.2 
			2040.3,154.3 2041,161.3 2043.1,168.1 2046.4,174.4 2050.9,179.9 2056.4,184.4 2062.7,187.7 2069.5,189.8 2076.6,190.5 
			2083.6,189.8 2090.4,187.7 2096.7,184.4 2102.2,179.9 2106.7,174.4 2110,168.1 2112.1,161.3 		"/>
		<line class="st2" x1="1770.3" y1="386.3" x2="1805.2" y2="168.9"/>
		<line class="st2" x1="1432.7" y1="49" x2="1705" y2="351.1"/>
		<line class="st2" x1="1613.3" y1="96.2" x2="1485.6" y2="33.7"/>
		<line class="st2" x1="1577.9" y1="703.1" x2="1294.7" y2="290.9"/>
		<line class="st2" x1="1918" y1="638.5" x2="1863.2" y2="653.5"/>
		<line class="st2" x1="1478.4" y1="123.9" x2="1527" y2="674.6"/>
		<line class="st2" x1="1687.8" y1="494.9" x2="1857.4" y2="153.3"/>
		<line class="st2" x1="1899.2" y1="37.9" x2="1831.4" y2="449.3"/>
		<line class="st2" x1="1457.5" y1="602.4" x2="1564.2" y2="673.9"/>
	</g>
	<g id="layer2_00000075854566072874116840000009626368988364623751_">
		<polygon class="st3" points="2112.8,299.2 2112.1,292.2 2110,285.4 2106.7,279.1 2102.2,273.6 2096.7,269.1 2090.4,265.7 
			2083.6,263.7 2076.6,263 2069.5,263.7 2062.7,265.7 2056.4,269.1 2050.9,273.6 2046.4,279.1 2043.1,285.4 2041,292.2 
			2040.3,299.2 2041,306.3 2043.1,313.1 2046.4,319.4 2050.9,324.9 2056.4,329.4 2062.7,332.7 2069.5,334.8 2076.6,335.5 
			2083.6,334.8 2090.4,332.7 2096.7,329.4 2102.2,324.9 2106.7,319.4 2110,313.1 2112.1,306.3 		"/>
		<line class="st3" x1="1577.7" y1="687.1" x2="1718.3" y2="489.5"/>
		<line class="st3" x1="1455.1" y1="26.4" x2="1348.7" y2="585"/>
		<line class="st3" x1="1285.7" y1="354.1" x2="1242.8" y2="384.4"/>
		<line class="st3" x1="1883.6" y1="406.3" x2="1909.2" y2="209.4"/>
		<line class="st3" x1="1291.7" y1="333.6" x2="1527.6" y2="203.2"/>
		<line class="st3" x1="1612.3" y1="159.7" x2="1460.9" y2="718.4"/>
		<line class="st3" x1="1280.1" y1="179.3" x2="1242" y2="486.6"/>
		<line class="st3" x1="1585" y1="216.8" x2="1924" y2="329.7"/>
		<line class="st3" x1="1264.1" y1="216" x2="1901.5" y2="174.5"/>
		<line class="st3" x1="1798.7" y1="187.5" x2="1373" y2="87.2"/>
		<line class="st3" x1="1420" y1="302.7" x2="1420.2" y2="702.9"/>
		<line class="st3" x1="1840.3" y1="445.5" x2="1319.3" y2="296.2"/>
		<line class="st3" x1="1303.6" y1="382.3" x2="1606.6" y2="610.4"/>
		<line class="st3" x1="1391.2" y1="630.2" x2="1341.6" y2="635.1"/>
		<line class="st3" x1="1921.2" y1="658.5" x2="1561.2" y2="481"/>
		<line class="st3" x1="1483.8" y1="641.8" x2="1251.5" y2="241.9"/>
		<line class="st3" x1="1230.6" y1="140.2" x2="1923.9" y2="166.4"/>
		<line class="st3" x1="1860.2" y1="128" x2="1655.4" y2="255"/>
		<line class="st3" x1="1817.2" y1="112.3" x2="1283.8" y2="282.7"/>
		<polygon class="st3" points="2112.8,299.2 2112.1,292.2 2110,285.4 2106.7,279.1 2102.2,273.6 2096.7,269.1 2090.4,265.7 
			2083.6,263.7 2076.6,263 2069.5,263.7 2062.7,265.7 2056.4,269.1 2050.9,273.6 2046.4,279.1 2043.1,285.4 2041,292.2 
			2040.3,299.2 2041,306.3 2043.1,313.1 2046.4,319.4 2050.9,324.9 2056.4,329.4 2062.7,332.7 2069.5,334.8 2076.6,335.5 
			2083.6,334.8 2090.4,332.7 2096.7,329.4 2102.2,324.9 2106.7,319.4 2110,313.1 2112.1,306.3 		"/>
		<line class="st3" x1="1466.8" y1="176.5" x2="1257.5" y2="560"/>
		<line class="st3" x1="1436.4" y1="308.1" x2="1644.1" y2="653.6"/>
		<line class="st3" x1="1870" y1="428.9" x2="1365" y2="505.6"/>
		<line class="st3" x1="1461.4" y1="572.1" x2="1381" y2="228.2"/>
		<line class="st3" x1="1553.6" y1="171.4" x2="1583.5" y2="46.1"/>
		<line class="st3" x1="1783.5" y1="420.9" x2="1609.7" y2="695.8"/>
		<line class="st3" x1="1730.3" y1="314.5" x2="1537.9" y2="210.5"/>
		<line class="st3" x1="1595.5" y1="576.3" x2="1272.4" y2="346.1"/>
		<line class="st3" x1="1912.5" y1="143.8" x2="1877.3" y2="667.8"/>
		<line class="st3" x1="1681" y1="446.4" x2="1763.5" y2="658"/>
		<line class="st3" x1="1624.1" y1="466.3" x2="1467.7" y2="592.7"/>
		<line class="st3" x1="1493.8" y1="473" x2="1209.4" y2="453.6"/>
		<line class="st3" x1="1312.8" y1="112.1" x2="1363.4" y2="302.7"/>
		<line class="st3" x1="1554.8" y1="19.6" x2="1670.9" y2="496.5"/>
		<line class="st3" x1="1874.7" y1="313.9" x2="1919.5" y2="287.2"/>
		<line class="st3" x1="1470.9" y1="205.3" x2="1858.3" y2="646.6"/>
		<line class="st3" x1="1690.1" y1="443.1" x2="1505.7" y2="544.4"/>
		<line class="st3" x1="1533.8" y1="126.6" x2="1884.5" y2="400.7"/>
		<line class="st3" x1="1900.2" y1="150.9" x2="1289.2" y2="43.8"/>
		<line class="st3" x1="1314.6" y1="574.9" x2="1915.1" y2="648.2"/>
		<line class="st3" x1="1376" y1="494.6" x2="1451" y2="656.4"/>
		<polygon class="st3" points="2112.8,299.2 2112.1,292.2 2110,285.4 2106.7,279.1 2102.2,273.6 2096.7,269.1 2090.4,265.7 
			2083.6,263.7 2076.6,263 2069.5,263.7 2062.7,265.7 2056.4,269.1 2050.9,273.6 2046.4,279.1 2043.1,285.4 2041,292.2 
			2040.3,299.2 2041,306.3 2043.1,313.1 2046.4,319.4 2050.9,324.9 2056.4,329.4 2062.7,332.7 2069.5,334.8 2076.6,335.5 
			2083.6,334.8 2090.4,332.7 2096.7,329.4 2102.2,324.9 2106.7,319.4 2110,313.1 2112.1,306.3 		"/>
		<line class="st3" x1="1692.2" y1="59.4" x2="1853.3" y2="134.6"/>
		<line class="st3" x1="1787.7" y1="312.7" x2="1442" y2="490.7"/>
		<line class="st3" x1="1866.6" y1="410" x2="1822.2" y2="344.3"/>
		<line class="st3" x1="1212.3" y1="385.4" x2="1774.9" y2="161.9"/>
		<line class="st3" x1="1719.3" y1="429.8" x2="1488.4" y2="453.5"/>
		<line class="st3" x1="1222" y1="357.2" x2="1477.7" y2="199.9"/>
		<line class="st3" x1="1468.6" y1="514" x2="1614.3" y2="612.7"/>
		<line class="st3" x1="1737" y1="337.5" x2="1930.6" y2="309.3"/>
		<line class="st3" x1="1337.4" y1="47.5" x2="1667.3" y2="177.9"/>
		<line class="st3" x1="1285.9" y1="731.1" x2="1737.1" y2="491.6"/>
		<line class="st3" x1="1848.7" y1="589.2" x2="1310" y2="538.5"/>
		<line class="st3" x1="1716.7" y1="539.1" x2="1871.3" y2="705.6"/>
		<line class="st3" x1="1223.3" y1="349.3" x2="1318.4" y2="495.4"/>
		<line class="st3" x1="1611.2" y1="268.3" x2="1602.9" y2="204.1"/>
		<line class="st3" x1="1558.2" y1="388.4" x2="1509.1" y2="729.5"/>
		<line class="st3" x1="1766.3" y1="115.4" x2="1704.7" y2="459.4"/>
		<line class="st3" x1="1845.2" y1="88.5" x2="1915.6" y2="23.3"/>
		<line class="st3" x1="1607" y1="133.7" x2="1779.2" y2="253.4"/>
		<line class="st3" x1="1529.9" y1="623.6" x2="1309.5" y2="521.8"/>
		<line class="st3" x1="1357.5" y1="57.1" x2="1544.8" y2="559.9"/>
		<line class="st3" x1="1259.8" y1="640.9" x2="1787.7" y2="285.5"/>
		<line class="st3" x1="1354.8" y1="122.4" x2="1523.7" y2="76.7"/>
		<line class="st3" x1="1214.7" y1="472.8" x2="1855.3" y2="589.7"/>
		<polygon class="st3" points="2112.8,299.2 2112.1,292.2 2110,285.4 2106.7,279.1 2102.2,273.6 2096.7,269.1 2090.4,265.7 
			2083.6,263.7 2076.6,263 2069.5,263.7 2062.7,265.7 2056.4,269.1 2050.9,273.6 2046.4,279.1 2043.1,285.4 2041,292.2 
			2040.3,299.2 2041,306.3 2043.1,313.1 2046.4,319.4 2050.9,324.9 2056.4,329.4 2062.7,332.7 2069.5,334.8 2076.6,335.5 
			2083.6,334.8 2090.4,332.7 2096.7,329.4 2102.2,324.9 2106.7,319.4 2110,313.1 2112.1,306.3 		"/>
		<line class="st3" x1="1641.5" y1="704.4" x2="1315.3" y2="530.1"/>
		<line class="st3" x1="1520.6" y1="563" x2="1870.1" y2="620.2"/>
		<line class="st3" x1="1825.3" y1="321.7" x2="1733.2" y2="434.2"/>
		<line class="st3" x1="1618.1" y1="26.9" x2="1362.2" y2="687.3"/>
		<line class="st3" x1="1385.2" y1="264.9" x2="1232.3" y2="662.4"/>
		<line class="st3" x1="1334" y1="640.9" x2="1418.8" y2="96.4"/>
		<line class="st3" x1="1719.3" y1="730.2" x2="1602.4" y2="95.2"/>
		<line class="st3" x1="1675.5" y1="184.1" x2="1258" y2="316.9"/>
		<line class="st3" x1="1418" y1="510.9" x2="1836.3" y2="482.5"/>
		<line class="st3" x1="1418.5" y1="181.4" x2="1847.4" y2="64.5"/>
		<line class="st3" x1="1736.7" y1="605.9" x2="1496.4" y2="389.2"/>
		<line class="st3" x1="1803.3" y1="366" x2="1462.4" y2="126.9"/>
		<line class="st3" x1="1713.3" y1="678.8" x2="1797.2" y2="160.5"/>
		<line class="st3" x1="1774.4" y1="169.2" x2="1224.8" y2="125.5"/>
		<line class="st3" x1="1468.2" y1="150.8" x2="1861.9" y2="65.5"/>
		<line class="st3" x1="1608.3" y1="666.5" x2="1814.2" y2="387.7"/>
		<line class="st3" x1="1355.3" y1="99.5" x2="1706.5" y2="13.4"/>
		<polygon class="st3" points="2112.8,299.2 2112.1,292.2 2110,285.4 2106.7,279.1 2102.2,273.6 2096.7,269.1 2090.4,265.7 
			2083.6,263.7 2076.6,263 2069.5,263.7 2062.7,265.7 2056.4,269.1 2050.9,273.6 2046.4,279.1 2043.1,285.4 2041,292.2 
			2040.3,299.2 2041,306.3 2043.1,313.1 2046.4,319.4 2050.9,324.9 2056.4,329.4 2062.7,332.7 2069.5,334.8 2076.6,335.5 
			2083.6,334.8 2090.4,332.7 2096.7,329.4 2102.2,324.9 2106.7,319.4 2110,313.1 2112.1,306.3 		"/>
		<line class="st3" x1="1609.4" y1="711.1" x2="1876" y2="724.8"/>
		<line class="st3" x1="1486.5" y1="346.8" x2="1370.8" y2="555.6"/>
		<line class="st3" x1="1366.9" y1="185.9" x2="1234" y2="691.5"/>
		<line class="st3" x1="1771.1" y1="387.2" x2="1206.8" y2="572.5"/>
		<line class="st3" x1="1598.5" y1="630.1" x2="1820.5" y2="297.1"/>
		<line class="st3" x1="1878.2" y1="120" x2="1527.4" y2="358"/>
		<line class="st3" x1="1325.6" y1="35.1" x2="1692.3" y2="538"/>
		<line class="st3" x1="1289.7" y1="44.9" x2="1780.8" y2="394.5"/>
		<line class="st3" x1="1717.5" y1="724.2" x2="1814" y2="667"/>
		<line class="st3" x1="1404.6" y1="527.2" x2="1686.9" y2="447"/>
		<line class="st3" x1="1689.9" y1="110" x2="1565.6" y2="112.8"/>
		<line class="st3" x1="1537.3" y1="608.9" x2="1687" y2="413.9"/>
		<line class="st3" x1="1329.8" y1="27.1" x2="1654.3" y2="126.5"/>
		<line class="st3" x1="1311.6" y1="225.8" x2="1761.8" y2="616.8"/>
		<line class="st3" x1="1740.5" y1="161.8" x2="1560.5" y2="342.3"/>
		<line class="st3" x1="1905.5" y1="613.4" x2="1312.8" y2="183.7"/>
		<line class="st3" x1="1536.6" y1="209.1" x2="1808.5" y2="615"/>
		<line class="st3" x1="1499.5" y1="390.7" x2="1286.1" y2="316.6"/>
		<line class="st3" x1="1720.2" y1="596.7" x2="1675.8" y2="391.5"/>
		<polygon class="st3" points="2112.8,299.2 2112.1,292.2 2110,285.4 2106.7,279.1 2102.2,273.6 2096.7,269.1 2090.4,265.7 
			2083.6,263.7 2076.6,263 2069.5,263.7 2062.7,265.7 2056.4,269.1 2050.9,273.6 2046.4,279.1 2043.1,285.4 2041,292.2 
			2040.3,299.2 2041,306.3 2043.1,313.1 2046.4,319.4 2050.9,324.9 2056.4,329.4 2062.7,332.7 2069.5,334.8 2076.6,335.5 
			2083.6,334.8 2090.4,332.7 2096.7,329.4 2102.2,324.9 2106.7,319.4 2110,313.1 2112.1,306.3 		"/>
		<line class="st3" x1="1635.1" y1="80.5" x2="1614.1" y2="158.5"/>
		<line class="st3" x1="1812.6" y1="98.6" x2="1653.8" y2="202.6"/>
		<line class="st3" x1="1585.5" y1="654" x2="1366.5" y2="459.5"/>
		<line class="st3" x1="1476.8" y1="501.5" x2="1356.6" y2="553.3"/>
		<line class="st3" x1="1903.2" y1="197.5" x2="1801.4" y2="356"/>
		<line class="st3" x1="1687.4" y1="194.7" x2="1456.5" y2="23.6"/>
		<line class="st3" x1="1472.6" y1="48.7" x2="1494.9" y2="127.4"/>
		<line class="st3" x1="1399.6" y1="435" x2="1692.1" y2="231"/>
		<line class="st3" x1="1739" y1="685.5" x2="1414.8" y2="565.8"/>
		<line class="st3" x1="1913.9" y1="493.2" x2="1818.7" y2="289.5"/>
		<line class="st3" x1="1531.4" y1="72.3" x2="1704.2" y2="587.3"/>
		<line class="st3" x1="1429.4" y1="653.4" x2="1578.1" y2="232.1"/>
		<line class="st3" x1="1872" y1="289" x2="1460.7" y2="175.9"/>
		<line class="st3" x1="1224.7" y1="331.1" x2="1816.8" y2="551.1"/>
		<line class="st3" x1="1709.4" y1="556.6" x2="1681.4" y2="179.9"/>
		<line class="st3" x1="1605" y1="163.4" x2="1903.8" y2="602.2"/>
		<line class="st3" x1="1689.5" y1="400.2" x2="1824.2" y2="625.1"/>
		<line class="st3" x1="1343.3" y1="361.1" x2="1328.5" y2="163.6"/>
		<line class="st3" x1="1467.5" y1="440.4" x2="1360.2" y2="282.6"/>
		<line class="st3" x1="1229.4" y1="632.7" x2="1904.3" y2="320.6"/>
		<line class="st3" x1="1465.4" y1="108.6" x2="1706.2" y2="289.6"/>
		<line class="st3" x1="1805" y1="95.2" x2="1674.4" y2="266.7"/>
		<line class="st3" x1="1366.9" y1="572.8" x2="1477.8" y2="336.8"/>
		<polygon class="st3" points="2112.8,299.2 2112.1,292.2 2110,285.4 2106.7,279.1 2102.2,273.6 2096.7,269.1 2090.4,265.7 
			2083.6,263.7 2076.6,263 2069.5,263.7 2062.7,265.7 2056.4,269.1 2050.9,273.6 2046.4,279.1 2043.1,285.4 2041,292.2 
			2040.3,299.2 2041,306.3 2043.1,313.1 2046.4,319.4 2050.9,324.9 2056.4,329.4 2062.7,332.7 2069.5,334.8 2076.6,335.5 
			2083.6,334.8 2090.4,332.7 2096.7,329.4 2102.2,324.9 2106.7,319.4 2110,313.1 2112.1,306.3 		"/>
		<line class="st3" x1="1243.4" y1="673" x2="1579.4" y2="537.2"/>
		<line class="st3" x1="1902.2" y1="267.5" x2="1891.4" y2="68.9"/>
		<line class="st3" x1="1450.4" y1="377.1" x2="1668.7" y2="274.5"/>
		<line class="st3" x1="1338.8" y1="53.1" x2="1764.5" y2="291.9"/>
		<line class="st3" x1="1538.5" y1="403.7" x2="1880" y2="19.2"/>
		<line class="st3" x1="1502.9" y1="263" x2="1686.2" y2="278.2"/>
		<line class="st3" x1="1589.8" y1="533.8" x2="1708.9" y2="167.7"/>
		<line class="st3" x1="1708.8" y1="257.5" x2="1826.9" y2="125.4"/>
		<line class="st3" x1="1240.3" y1="213.6" x2="1797.9" y2="54.6"/>
		<line class="st3" x1="1916.7" y1="396.4" x2="1681.3" y2="596.2"/>
		<line class="st3" x1="1571.3" y1="119.9" x2="1686.6" y2="210.1"/>
		<line class="st3" x1="1699.4" y1="99.2" x2="1345.2" y2="455.6"/>
		<line class="st3" x1="1249.8" y1="162.3" x2="1720" y2="603.8"/>
		<line class="st3" x1="1477.3" y1="626.3" x2="1228.6" y2="173.7"/>
		<line class="st3" x1="1240.9" y1="323.8" x2="1462.6" y2="139.4"/>
		<line class="st3" x1="1570.2" y1="642.6" x2="1747.2" y2="692.3"/>
		<line class="st3" x1="1842.3" y1="657.5" x2="1525.2" y2="250.1"/>
		<line class="st3" x1="1228.2" y1="619.4" x2="1855.3" y2="82.4"/>
		<line class="st3" x1="1800.5" y1="332.2" x2="1719.9" y2="401.1"/>
		<line class="st3" x1="1422.3" y1="210.6" x2="1322" y2="542.1"/>
		<polygon class="st3" points="2112.8,299.2 2112.1,292.2 2110,285.4 2106.7,279.1 2102.2,273.6 2096.7,269.1 2090.4,265.7 
			2083.6,263.7 2076.6,263 2069.5,263.7 2062.7,265.7 2056.4,269.1 2050.9,273.6 2046.4,279.1 2043.1,285.4 2041,292.2 
			2040.3,299.2 2041,306.3 2043.1,313.1 2046.4,319.4 2050.9,324.9 2056.4,329.4 2062.7,332.7 2069.5,334.8 2076.6,335.5 
			2083.6,334.8 2090.4,332.7 2096.7,329.4 2102.2,324.9 2106.7,319.4 2110,313.1 2112.1,306.3 		"/>
		<line class="st3" x1="1300.7" y1="361.7" x2="1310.2" y2="678.4"/>
		<line class="st3" x1="1348.7" y1="329.1" x2="1741.8" y2="602.6"/>
		<line class="st3" x1="1741.2" y1="692.9" x2="1792" y2="652.3"/>
		<line class="st3" x1="1851.2" y1="442.5" x2="1590.5" y2="578.2"/>
		<line class="st3" x1="1490.5" y1="129.3" x2="1371.8" y2="529.6"/>
		<line class="st3" x1="1600.5" y1="685.9" x2="1222.2" y2="538.4"/>
		<line class="st3" x1="1513" y1="726.2" x2="1891.3" y2="91"/>
		<line class="st3" x1="1824.8" y1="363.3" x2="1219.6" y2="279.3"/>
		<line class="st3" x1="1797.4" y1="137.9" x2="1446.8" y2="63.9"/>
		<line class="st3" x1="1438.4" y1="369.1" x2="1319.5" y2="487.5"/>
		<line class="st3" x1="1591.5" y1="121.7" x2="1684" y2="522.3"/>
		<line class="st3" x1="1276.5" y1="127.1" x2="1353.6" y2="447.9"/>
		<line class="st3" x1="1371.3" y1="309.4" x2="1795.5" y2="697.7"/>
		<line class="st3" x1="1474.4" y1="715.8" x2="1252" y2="363"/>
		<line class="st3" x1="1571.9" y1="618.3" x2="1591.9" y2="618.3"/>
		<line class="st3" x1="1603.7" y1="580" x2="1712" y2="12.8"/>
		<line class="st3" x1="1579.5" y1="123.9" x2="1236.7" y2="498.2"/>
		<line class="st3" x1="1426.4" y1="730" x2="1829.5" y2="79.5"/>
		<polygon class="st3" points="2112.8,299.2 2112.1,292.2 2110,285.4 2106.7,279.1 2102.2,273.6 2096.7,269.1 2090.4,265.7 
			2083.6,263.7 2076.6,263 2069.5,263.7 2062.7,265.7 2056.4,269.1 2050.9,273.6 2046.4,279.1 2043.1,285.4 2041,292.2 
			2040.3,299.2 2041,306.3 2043.1,313.1 2046.4,319.4 2050.9,324.9 2056.4,329.4 2062.7,332.7 2069.5,334.8 2076.6,335.5 
			2083.6,334.8 2090.4,332.7 2096.7,329.4 2102.2,324.9 2106.7,319.4 2110,313.1 2112.1,306.3 		"/>
		<line class="st3" x1="1928.9" y1="477.3" x2="1886.6" y2="326.4"/>
		<line class="st3" x1="1701.5" y1="362.8" x2="1490.5" y2="264.6"/>
		<line class="st3" x1="1844.9" y1="597.1" x2="1454.4" y2="581.2"/>
		<line class="st3" x1="1652.1" y1="727.1" x2="1417" y2="91.9"/>
		<line class="st3" x1="1779.8" y1="367.1" x2="1637.1" y2="53.2"/>
		<line class="st3" x1="1722.6" y1="31" x2="1539.9" y2="389.2"/>
		<line class="st3" x1="1695.4" y1="473.4" x2="1659.7" y2="137"/>
		<line class="st3" x1="1289.2" y1="440.2" x2="1380.4" y2="275.8"/>
		<line class="st3" x1="1905.9" y1="611.7" x2="1578.2" y2="461.3"/>
		<line class="st3" x1="1793.7" y1="546.1" x2="1602.3" y2="38.1"/>
		<line class="st3" x1="1654.2" y1="58.4" x2="1724.2" y2="729.1"/>
		<line class="st3" x1="1706.9" y1="271" x2="1721.6" y2="195.5"/>
		<line class="st3" x1="1891.5" y1="221.9" x2="1707.3" y2="191"/>
		<line class="st3" x1="1892.6" y1="545.6" x2="1645.9" y2="442.3"/>
		<line class="st3" x1="1550" y1="603.9" x2="1240.6" y2="143"/>
		<line class="st3" x1="1254.4" y1="640.4" x2="1318.8" y2="538.2"/>
		<line class="st3" x1="1310.2" y1="578.2" x2="1661.9" y2="568.9"/>
		<line class="st3" x1="1469.3" y1="106.9" x2="1228.1" y2="586.9"/>
		<line class="st3" x1="1438.7" y1="257.2" x2="1207.7" y2="189.8"/>
		<line class="st3" x1="1303.3" y1="376.1" x2="1350" y2="537.2"/>
		<line class="st3" x1="1548.7" y1="238.6" x2="1873.6" y2="630.7"/>
		<polygon class="st3" points="2112.8,299.2 2112.1,292.2 2110,285.4 2106.7,279.1 2102.2,273.6 2096.7,269.1 2090.4,265.7 
			2083.6,263.7 2076.6,263 2069.5,263.7 2062.7,265.7 2056.4,269.1 2050.9,273.6 2046.4,279.1 2043.1,285.4 2041,292.2 
			2040.3,299.2 2041,306.3 2043.1,313.1 2046.4,319.4 2050.9,324.9 2056.4,329.4 2062.7,332.7 2069.5,334.8 2076.6,335.5 
			2083.6,334.8 2090.4,332.7 2096.7,329.4 2102.2,324.9 2106.7,319.4 2110,313.1 2112.1,306.3 		"/>
		<line class="st3" x1="1291" y1="137.7" x2="1877.2" y2="639.6"/>
		<line class="st3" x1="1321.2" y1="121.7" x2="1827.8" y2="510.7"/>
		<line class="st3" x1="1303.8" y1="512.4" x2="1525.8" y2="112.1"/>
		<line class="st3" x1="1689.3" y1="228.2" x2="1248.7" y2="644.7"/>
		<line class="st3" x1="1474.7" y1="674.7" x2="1569" y2="151.1"/>
		<line class="st3" x1="1706.9" y1="151.9" x2="1713.2" y2="384.4"/>
		<line class="st3" x1="1306.6" y1="104" x2="1844.8" y2="246.3"/>
		<line class="st3" x1="1772.9" y1="712.5" x2="1919.8" y2="694.8"/>
		<line class="st3" x1="1783.7" y1="61.8" x2="1514.4" y2="142.6"/>
		<line class="st3" x1="1581.6" y1="319.6" x2="1493.4" y2="268.3"/>
		<line class="st3" x1="1847.4" y1="241.5" x2="1894.6" y2="184.5"/>
		<line class="st3" x1="1472" y1="301.4" x2="1410.1" y2="575.9"/>
		<line class="st3" x1="1300.7" y1="655.5" x2="1864.9" y2="387.3"/>
		<line class="st3" x1="1227.9" y1="339.9" x2="1764.6" y2="311.2"/>
		<line class="st3" x1="1551.5" y1="439.7" x2="1396.9" y2="295.5"/>
		<line class="st3" x1="1429.5" y1="310.2" x2="1364.5" y2="621.2"/>
		<line class="st3" x1="1929.4" y1="361.3" x2="1380.5" y2="607.7"/>
		<line class="st3" x1="1754.2" y1="649.9" x2="1839.7" y2="642.2"/>
		<line class="st3" x1="1323.2" y1="298.9" x2="1662.5" y2="384.2"/>
	</g>
	<g id="layer3_00000084505313131734327960000004446671319012639114_">
		<polygon class="st0" points="2112.8,444.2 2112.1,437.1 2110,430.3 2106.7,424.1 2102.2,418.6 2096.7,414.1 2090.4,410.7 
			2083.6,408.6 2076.6,408 2069.5,408.6 2062.7,410.7 2056.4,414.1 2050.9,418.6 2046.4,424.1 2043.1,430.3 2041,437.1 
			2040.3,444.2 2041,451.3 2043.1,458.1 2046.4,464.3 2050.9,469.8 2056.4,474.3 2062.7,477.7 2069.5,479.7 2076.6,480.4 
			2083.6,479.7 2090.4,477.7 2096.7,474.3 2102.2,469.8 2106.7,464.3 2110,458.1 2112.1,451.3 		"/>
		<line class="st0" x1="1358.3" y1="695.8" x2="1444.5" y2="194.7"/>
		<line class="st0" x1="1320.9" y1="298.5" x2="1534.7" y2="333.8"/>
		<line class="st0" x1="1582" y1="111.5" x2="1706" y2="85.9"/>
		<line class="st0" x1="1844.8" y1="153.7" x2="1378" y2="668.2"/>
		<line class="st0" x1="1567.2" y1="56.5" x2="1620.2" y2="226.8"/>
		<line class="st0" x1="1505.3" y1="269.7" x2="1547.3" y2="483.3"/>
		<line class="st0" x1="1873.5" y1="648.4" x2="1316.4" y2="564"/>
		<line class="st0" x1="1247.5" y1="640.9" x2="1428.5" y2="461.2"/>
		<line class="st0" x1="1415.3" y1="426.3" x2="1826.6" y2="234.9"/>
		<line class="st0" x1="1387.4" y1="137.1" x2="1625.6" y2="76.1"/>
		<line class="st0" x1="1852.8" y1="697.9" x2="1815.9" y2="219.2"/>
		<line class="st0" x1="1773.9" y1="500" x2="1247.9" y2="166.8"/>
		<line class="st0" x1="1438.8" y1="616.9" x2="1388.5" y2="563.7"/>
		<line class="st0" x1="1845" y1="346.5" x2="1915" y2="486.3"/>
		<line class="st0" x1="1293.9" y1="156.1" x2="1635.2" y2="127"/>
		<line class="st0" x1="1846.6" y1="711" x2="1823.2" y2="460.6"/>
		<line class="st0" x1="1374.1" y1="719.7" x2="1765.5" y2="653.4"/>
		<line class="st0" x1="1532.4" y1="581.3" x2="1900" y2="599.8"/>
		<line class="st0" x1="1351" y1="603" x2="1584.4" y2="608.7"/>
		<line class="st0" x1="1893.8" y1="405.8" x2="1720.5" y2="227.8"/>
		<line class="st0" x1="1661" y1="316.7" x2="1315.7" y2="566.7"/>
		<line class="st0" x1="1550.7" y1="730.4" x2="1799.4" y2="454.2"/>
		<polygon class="st0" points="2112.8,444.2 2112.1,437.1 2110,430.3 2106.7,424.1 2102.2,418.6 2096.7,414.1 2090.4,410.7 
			2083.6,408.6 2076.6,408 2069.5,408.6 2062.7,410.7 2056.4,414.1 2050.9,418.6 2046.4,424.1 2043.1,430.3 2041,437.1 
			2040.3,444.2 2041,451.3 2043.1,458.1 2046.4,464.3 2050.9,469.8 2056.4,474.3 2062.7,477.7 2069.5,479.7 2076.6,480.4 
			2083.6,479.7 2090.4,477.7 2096.7,474.3 2102.2,469.8 2106.7,464.3 2110,458.1 2112.1,451.3 		"/>
		<line class="st0" x1="1461" y1="246.1" x2="1611.4" y2="16.8"/>
		<line class="st0" x1="1789.8" y1="487.6" x2="1856" y2="574.5"/>
		<line class="st0" x1="1874.7" y1="26.6" x2="1273.4" y2="239.5"/>
		<line class="st0" x1="1763.6" y1="535" x2="1691.6" y2="428.6"/>
		<line class="st0" x1="1407.8" y1="495.2" x2="1392.4" y2="730.8"/>
		<line class="st0" x1="1466.3" y1="505.4" x2="1839.5" y2="115.9"/>
		<line class="st0" x1="1383.5" y1="9.4" x2="1694.5" y2="433.4"/>
		<line class="st0" x1="1324.6" y1="341.4" x2="1562.7" y2="552"/>
		<line class="st0" x1="1807" y1="547.6" x2="1488.5" y2="723.3"/>
		<line class="st0" x1="1753.5" y1="155.6" x2="1402.3" y2="444.7"/>
		<line class="st0" x1="1327.3" y1="406" x2="1239" y2="21.2"/>
		<line class="st0" x1="1842.5" y1="375.2" x2="1478.1" y2="458.6"/>
		<line class="st0" x1="1622.1" y1="175.5" x2="1727.2" y2="208"/>
		<line class="st0" x1="1903.9" y1="318.5" x2="1461.6" y2="362.3"/>
		<line class="st0" x1="1832.7" y1="456.2" x2="1608.6" y2="680.3"/>
		<line class="st0" x1="1212.7" y1="151.7" x2="1924" y2="130.3"/>
		<line class="st0" x1="1493.1" y1="111.1" x2="1710.3" y2="510.7"/>
		<line class="st0" x1="1290" y1="110" x2="1761.5" y2="89.4"/>
		<line class="st0" x1="1283" y1="270.1" x2="1479.1" y2="352.1"/>
		<line class="st0" x1="1466.6" y1="610.2" x2="1523.3" y2="508.5"/>
		<line class="st0" x1="1740.8" y1="630.9" x2="1594.9" y2="317.7"/>
		<polygon class="st0" points="2112.8,444.2 2112.1,437.1 2110,430.3 2106.7,424.1 2102.2,418.6 2096.7,414.1 2090.4,410.7 
			2083.6,408.6 2076.6,408 2069.5,408.6 2062.7,410.7 2056.4,414.1 2050.9,418.6 2046.4,424.1 2043.1,430.3 2041,437.1 
			2040.3,444.2 2041,451.3 2043.1,458.1 2046.4,464.3 2050.9,469.8 2056.4,474.3 2062.7,477.7 2069.5,479.7 2076.6,480.4 
			2083.6,479.7 2090.4,477.7 2096.7,474.3 2102.2,469.8 2106.7,464.3 2110,458.1 2112.1,451.3 		"/>
		<line class="st0" x1="1446.5" y1="161.3" x2="1593.3" y2="714.8"/>
		<line class="st0" x1="1627.9" y1="280.1" x2="1532.3" y2="620.3"/>
		<line class="st0" x1="1819.9" y1="218.7" x2="1501.8" y2="352.2"/>
		<line class="st0" x1="1887.5" y1="36.8" x2="1228.6" y2="155.6"/>
		<line class="st0" x1="1385.4" y1="96.8" x2="1419.4" y2="99.6"/>
		<line class="st0" x1="1773.8" y1="508.7" x2="1237.1" y2="257.9"/>
		<line class="st0" x1="1213.8" y1="496.1" x2="1311.1" y2="471.7"/>
		<line class="st0" x1="1677.8" y1="546" x2="1898.9" y2="708"/>
		<line class="st0" x1="1651.5" y1="561.4" x2="1856.2" y2="53.4"/>
		<line class="st0" x1="1555" y1="93.2" x2="1376.9" y2="391"/>
		<line class="st0" x1="1691.9" y1="657.2" x2="1565.5" y2="685.8"/>
		<line class="st0" x1="1385.1" y1="13.8" x2="1470.2" y2="503.3"/>
		<line class="st0" x1="1407.1" y1="122.7" x2="1826" y2="523.7"/>
		<line class="st0" x1="1721.3" y1="33.6" x2="1235" y2="190.1"/>
		<line class="st0" x1="1225.1" y1="191.5" x2="1536.8" y2="681.4"/>
		<line class="st0" x1="1261.9" y1="368.8" x2="1478.2" y2="30.9"/>
		<line class="st0" x1="1219.4" y1="367.7" x2="1292" y2="548.6"/>
		<line class="st0" x1="1471" y1="427.6" x2="1558.4" y2="648.6"/>
		<line class="st0" x1="1479.9" y1="600.9" x2="1913.5" y2="122.5"/>
		<polygon class="st0" points="2112.8,444.2 2112.1,437.1 2110,430.3 2106.7,424.1 2102.2,418.6 2096.7,414.1 2090.4,410.7 
			2083.6,408.6 2076.6,408 2069.5,408.6 2062.7,410.7 2056.4,414.1 2050.9,418.6 2046.4,424.1 2043.1,430.3 2041,437.1 
			2040.3,444.2 2041,451.3 2043.1,458.1 2046.4,464.3 2050.9,469.8 2056.4,474.3 2062.7,477.7 2069.5,479.7 2076.6,480.4 
			2083.6,479.7 2090.4,477.7 2096.7,474.3 2102.2,469.8 2106.7,464.3 2110,458.1 2112.1,451.3 		"/>
		<line class="st0" x1="1721" y1="655.4" x2="1261.5" y2="687.4"/>
		<line class="st0" x1="1275.8" y1="39.9" x2="1542.7" y2="117.1"/>
		<line class="st0" x1="1867.2" y1="453.5" x2="1906.3" y2="370"/>
		<line class="st0" x1="1666" y1="474.9" x2="1881" y2="469.6"/>
		<line class="st0" x1="1798.2" y1="469.4" x2="1731" y2="91.9"/>
		<line class="st0" x1="1561" y1="162.1" x2="1229.9" y2="481.3"/>
		<line class="st0" x1="1856.1" y1="569.9" x2="1224.1" y2="588.4"/>
		<line class="st0" x1="1528.4" y1="412.6" x2="1813.6" y2="180.7"/>
		<line class="st0" x1="1350.1" y1="503.2" x2="1335.9" y2="215.3"/>
		<line class="st0" x1="1888.9" y1="698.8" x2="1322.8" y2="266.8"/>
		<line class="st0" x1="1864.6" y1="519.6" x2="1605" y2="246.6"/>
		<line class="st0" x1="1435.3" y1="703.7" x2="1459.8" y2="59.2"/>
		<line class="st0" x1="1269.5" y1="681.3" x2="1679" y2="162.9"/>
		<line class="st0" x1="1589.9" y1="162.3" x2="1385.9" y2="123"/>
		<line class="st0" x1="1379.3" y1="618.4" x2="1693.1" y2="338.5"/>
		<line class="st0" x1="1225.9" y1="115.5" x2="1642.1" y2="598.2"/>
		<line class="st0" x1="1906.6" y1="10.1" x2="1373.3" y2="728.4"/>
		<polygon class="st0" points="2112.8,444.2 2112.1,437.1 2110,430.3 2106.7,424.1 2102.2,418.6 2096.7,414.1 2090.4,410.7 
			2083.6,408.6 2076.6,408 2069.5,408.6 2062.7,410.7 2056.4,414.1 2050.9,418.6 2046.4,424.1 2043.1,430.3 2041,437.1 
			2040.3,444.2 2041,451.3 2043.1,458.1 2046.4,464.3 2050.9,469.8 2056.4,474.3 2062.7,477.7 2069.5,479.7 2076.6,480.4 
			2083.6,479.7 2090.4,477.7 2096.7,474.3 2102.2,469.8 2106.7,464.3 2110,458.1 2112.1,451.3 		"/>
		<line class="st0" x1="1807.5" y1="652.7" x2="1390.7" y2="36.8"/>
		<line class="st0" x1="1336.7" y1="352.5" x2="1469.3" y2="524.7"/>
		<line class="st0" x1="1776" y1="34.7" x2="1552.2" y2="267.3"/>
		<line class="st0" x1="1736.3" y1="633" x2="1402.8" y2="365.4"/>
		<line class="st0" x1="1593.5" y1="346.2" x2="1364.2" y2="110.6"/>
		<line class="st0" x1="1217.6" y1="25.4" x2="1662" y2="553.5"/>
		<line class="st0" x1="1691.3" y1="523" x2="1637.6" y2="589.9"/>
		<line class="st0" x1="1494.2" y1="731.5" x2="1341.1" y2="94.7"/>
		<line class="st0" x1="1822.7" y1="674.4" x2="1599.8" y2="429.6"/>
		<line class="st0" x1="1585.8" y1="730.8" x2="1469.9" y2="185.3"/>
		<line class="st0" x1="1757.3" y1="473.1" x2="1711.2" y2="407.4"/>
		<line class="st0" x1="1762.7" y1="269.7" x2="1260.8" y2="147"/>
		<line class="st0" x1="1334.5" y1="703.2" x2="1274.1" y2="442.5"/>
		<line class="st0" x1="1236.5" y1="522.2" x2="1918.6" y2="43.1"/>
		<line class="st0" x1="1796.7" y1="454.2" x2="1564.4" y2="615.6"/>
		<line class="st0" x1="1371.8" y1="296.6" x2="1306.1" y2="95.6"/>
		<line class="st0" x1="1624.6" y1="585" x2="1881.7" y2="134.7"/>
		<line class="st0" x1="1669.6" y1="663.2" x2="1619.1" y2="637.3"/>
		<line class="st0" x1="1528.5" y1="612.5" x2="1681.7" y2="731"/>
		<polygon class="st0" points="2112.8,444.2 2112.1,437.1 2110,430.3 2106.7,424.1 2102.2,418.6 2096.7,414.1 2090.4,410.7 
			2083.6,408.6 2076.6,408 2069.5,408.6 2062.7,410.7 2056.4,414.1 2050.9,418.6 2046.4,424.1 2043.1,430.3 2041,437.1 
			2040.3,444.2 2041,451.3 2043.1,458.1 2046.4,464.3 2050.9,469.8 2056.4,474.3 2062.7,477.7 2069.5,479.7 2076.6,480.4 
			2083.6,479.7 2090.4,477.7 2096.7,474.3 2102.2,469.8 2106.7,464.3 2110,458.1 2112.1,451.3 		"/>
		<line class="st0" x1="1289.3" y1="579.7" x2="1600" y2="97.5"/>
		<line class="st0" x1="1593.9" y1="486.1" x2="1666.4" y2="334.7"/>
		<line class="st0" x1="1523.3" y1="318.8" x2="1707.5" y2="149.9"/>
		<line class="st0" x1="1874.3" y1="464.5" x2="1663.6" y2="78.9"/>
		<line class="st0" x1="1776.4" y1="85.1" x2="1654.9" y2="282.6"/>
		<line class="st0" x1="1726.5" y1="40" x2="1745" y2="556"/>
		<line class="st0" x1="1693.2" y1="544.2" x2="1656.8" y2="667.3"/>
		<line class="st0" x1="1799" y1="115.2" x2="1502.4" y2="525.9"/>
		<line class="st0" x1="1817.7" y1="166.1" x2="1694.3" y2="626.4"/>
		<line class="st0" x1="1248.6" y1="199" x2="1780.8" y2="96.9"/>
		<line class="st0" x1="1585.2" y1="669" x2="1221.9" y2="598.8"/>
		<line class="st0" x1="1663.4" y1="369.2" x2="1580.5" y2="580.8"/>
		<line class="st0" x1="1719.2" y1="50.9" x2="1553.4" y2="96.1"/>
		<line class="st0" x1="1433.6" y1="541.1" x2="1258.8" y2="242.4"/>
		<line class="st0" x1="1834.1" y1="249.6" x2="1758.2" y2="393.7"/>
		<line class="st0" x1="1718.7" y1="480.6" x2="1871.8" y2="18.8"/>
		<line class="st0" x1="1525.1" y1="253.7" x2="1544" y2="571.3"/>
		<line class="st0" x1="1589.6" y1="377.1" x2="1873.3" y2="270.6"/>
		<line class="st0" x1="1829.3" y1="654.2" x2="1753" y2="200.7"/>
		<line class="st0" x1="1597.9" y1="282.8" x2="1851.1" y2="720.2"/>
		<line class="st0" x1="1586" y1="274.4" x2="1849.4" y2="449"/>
		<polygon class="st0" points="2112.8,444.2 2112.1,437.1 2110,430.3 2106.7,424.1 2102.2,418.6 2096.7,414.1 2090.4,410.7 
			2083.6,408.6 2076.6,408 2069.5,408.6 2062.7,410.7 2056.4,414.1 2050.9,418.6 2046.4,424.1 2043.1,430.3 2041,437.1 
			2040.3,444.2 2041,451.3 2043.1,458.1 2046.4,464.3 2050.9,469.8 2056.4,474.3 2062.7,477.7 2069.5,479.7 2076.6,480.4 
			2083.6,479.7 2090.4,477.7 2096.7,474.3 2102.2,469.8 2106.7,464.3 2110,458.1 2112.1,451.3 		"/>
		<line class="st0" x1="1808.4" y1="583.6" x2="1832.8" y2="711"/>
		<line class="st0" x1="1753.8" y1="272.3" x2="1288.3" y2="663.6"/>
		<line class="st0" x1="1537.7" y1="436" x2="1501.8" y2="244.9"/>
		<line class="st0" x1="1669.5" y1="71.6" x2="1299.1" y2="395.4"/>
		<line class="st0" x1="1485.3" y1="121" x2="1362.6" y2="718.6"/>
		<line class="st0" x1="1592.4" y1="430.6" x2="1862.2" y2="265.6"/>
		<line class="st0" x1="1256" y1="712.9" x2="1768.4" y2="318.7"/>
		<line class="st0" x1="1736.4" y1="365.4" x2="1516.5" y2="565.5"/>
		<line class="st0" x1="1508.9" y1="118.6" x2="1860.4" y2="667.8"/>
		<line class="st0" x1="1734.3" y1="575.3" x2="1639.2" y2="457.3"/>
		<line class="st0" x1="1225.4" y1="728.2" x2="1555.8" y2="335.1"/>
		<line class="st0" x1="1461.1" y1="688.4" x2="1880.3" y2="334.8"/>
		<line class="st0" x1="1561.1" y1="730.8" x2="1359.2" y2="516.8"/>
		<line class="st0" x1="1215.1" y1="353.5" x2="1704.3" y2="485.6"/>
		<line class="st0" x1="1907.6" y1="541.3" x2="1712" y2="280.7"/>
		<line class="st0" x1="1686.1" y1="93.1" x2="1398.2" y2="582.8"/>
		<line class="st0" x1="1677.6" y1="659.1" x2="1333.7" y2="659.3"/>
		<line class="st0" x1="1519.2" y1="465" x2="1796.2" y2="387.9"/>
		<polygon class="st0" points="2112.8,444.2 2112.1,437.1 2110,430.3 2106.7,424.1 2102.2,418.6 2096.7,414.1 2090.4,410.7 
			2083.6,408.6 2076.6,408 2069.5,408.6 2062.7,410.7 2056.4,414.1 2050.9,418.6 2046.4,424.1 2043.1,430.3 2041,437.1 
			2040.3,444.2 2041,451.3 2043.1,458.1 2046.4,464.3 2050.9,469.8 2056.4,474.3 2062.7,477.7 2069.5,479.7 2076.6,480.4 
			2083.6,479.7 2090.4,477.7 2096.7,474.3 2102.2,469.8 2106.7,464.3 2110,458.1 2112.1,451.3 		"/>
		<line class="st0" x1="1409.1" y1="611.8" x2="1812.2" y2="143.3"/>
		<line class="st0" x1="1677.8" y1="131.7" x2="1789.4" y2="446.6"/>
		<line class="st0" x1="1548.5" y1="43.5" x2="1625.1" y2="684"/>
		<line class="st0" x1="1751.1" y1="411.3" x2="1658.3" y2="140.3"/>
		<line class="st0" x1="1550.4" y1="17.9" x2="1363.8" y2="673.9"/>
		<line class="st0" x1="1724.1" y1="128.8" x2="1268.4" y2="202.3"/>
		<line class="st0" x1="1789.7" y1="640.9" x2="1585.8" y2="144.8"/>
		<line class="st0" x1="1903" y1="374.6" x2="1556.7" y2="338.4"/>
		<line class="st0" x1="1466.7" y1="709.8" x2="1335" y2="127.5"/>
		<line class="st0" x1="1869.5" y1="629.9" x2="1250.4" y2="311.3"/>
		<line class="st0" x1="1592.2" y1="180.8" x2="1790.9" y2="58.6"/>
		<line class="st0" x1="1653" y1="241.4" x2="1437.2" y2="545.5"/>
		<line class="st0" x1="1797" y1="682.1" x2="1506.8" y2="374.1"/>
		<line class="st0" x1="1467.7" y1="77.4" x2="1449" y2="397.5"/>
		<line class="st0" x1="1507.9" y1="521.3" x2="1845.5" y2="309.1"/>
		<line class="st0" x1="1261.8" y1="33.5" x2="1718.6" y2="309"/>
		<polygon class="st0" points="2112.8,444.2 2112.1,437.1 2110,430.3 2106.7,424.1 2102.2,418.6 2096.7,414.1 2090.4,410.7 
			2083.6,408.6 2076.6,408 2069.5,408.6 2062.7,410.7 2056.4,414.1 2050.9,418.6 2046.4,424.1 2043.1,430.3 2041,437.1 
			2040.3,444.2 2041,451.3 2043.1,458.1 2046.4,464.3 2050.9,469.8 2056.4,474.3 2062.7,477.7 2069.5,479.7 2076.6,480.4 
			2083.6,479.7 2090.4,477.7 2096.7,474.3 2102.2,469.8 2106.7,464.3 2110,458.1 2112.1,451.3 		"/>
		<line class="st0" x1="1414.6" y1="73.9" x2="1392.9" y2="179.7"/>
		<line class="st0" x1="1658.1" y1="292" x2="1571.8" y2="568.1"/>
		<line class="st0" x1="1870.1" y1="512.5" x2="1309.6" y2="713"/>
		<line class="st0" x1="1556" y1="520.2" x2="1381.7" y2="294"/>
		<line class="st0" x1="1859.5" y1="491.7" x2="1497.1" y2="85.8"/>
		<line class="st0" x1="1588.2" y1="584.5" x2="1783.3" y2="394.2"/>
		<line class="st0" x1="1887.5" y1="312.6" x2="1845" y2="548.6"/>
		<line class="st0" x1="1373.1" y1="272.5" x2="1702.2" y2="563"/>
		<line class="st0" x1="1208.2" y1="250.1" x2="1627.4" y2="218.5"/>
		<line class="st0" x1="1617.3" y1="250.1" x2="1316.3" y2="620.3"/>
		<line class="st0" x1="1728" y1="169.4" x2="1233" y2="66.1"/>
		<line class="st0" x1="1883.9" y1="561.9" x2="1796" y2="170.3"/>
		<line class="st0" x1="1573" y1="34" x2="1698.1" y2="292.4"/>
		<line class="st0" x1="1903.6" y1="507.5" x2="1357.4" y2="63.8"/>
		<line class="st0" x1="1626.3" y1="425.1" x2="1817.4" y2="132"/>
		<line class="st0" x1="1448.2" y1="350.9" x2="1733.1" y2="22.8"/>
		<line class="st0" x1="1527.5" y1="586.7" x2="1748.6" y2="12.1"/>
		<line class="st0" x1="1551.6" y1="639.6" x2="1811.2" y2="488.1"/>
		<polygon class="st0" points="2112.8,444.2 2112.1,437.1 2110,430.3 2106.7,424.1 2102.2,418.6 2096.7,414.1 2090.4,410.7 
			2083.6,408.6 2076.6,408 2069.5,408.6 2062.7,410.7 2056.4,414.1 2050.9,418.6 2046.4,424.1 2043.1,430.3 2041,437.1 
			2040.3,444.2 2041,451.3 2043.1,458.1 2046.4,464.3 2050.9,469.8 2056.4,474.3 2062.7,477.7 2069.5,479.7 2076.6,480.4 
			2083.6,479.7 2090.4,477.7 2096.7,474.3 2102.2,469.8 2106.7,464.3 2110,458.1 2112.1,451.3 		"/>
		<line class="st0" x1="1689.8" y1="419.9" x2="1489.1" y2="654"/>
		<line class="st0" x1="1214.8" y1="559.2" x2="1579" y2="408.5"/>
		<line class="st0" x1="1730.6" y1="82.2" x2="1806.1" y2="464.9"/>
		<line class="st0" x1="1354.3" y1="78.9" x2="1806.2" y2="345.7"/>
		<line class="st0" x1="1907.8" y1="670.7" x2="1731" y2="380.2"/>
		<line class="st0" x1="1699.9" y1="386.9" x2="1457.5" y2="720.7"/>
		<line class="st0" x1="1564.6" y1="209.9" x2="1428.3" y2="261.6"/>
		<line class="st0" x1="1864.9" y1="674.4" x2="1442.4" y2="178"/>
		<line class="st0" x1="1885.9" y1="543.6" x2="1458.6" y2="656.8"/>
		<line class="st0" x1="1259.2" y1="11" x2="1846.2" y2="289.4"/>
		<line class="st0" x1="1684.4" y1="214.2" x2="1608.9" y2="149.7"/>
		<line class="st0" x1="1397.7" y1="434.5" x2="1439.9" y2="244.5"/>
		<line class="st0" x1="1294.7" y1="545.7" x2="1742.9" y2="93.2"/>
		<line class="st0" x1="1215.2" y1="331.2" x2="1870.1" y2="44.1"/>
		<line class="st0" x1="1537.8" y1="721.9" x2="1396.6" y2="343.9"/>
		<line class="st0" x1="1313.4" y1="220.7" x2="1813.7" y2="704.5"/>
		<line class="st0" x1="1453.4" y1="702.1" x2="1741.8" y2="55.9"/>
		<polygon class="st0" points="2112.8,444.2 2112.1,437.1 2110,430.3 2106.7,424.1 2102.2,418.6 2096.7,414.1 2090.4,410.7 
			2083.6,408.6 2076.6,408 2069.5,408.6 2062.7,410.7 2056.4,414.1 2050.9,418.6 2046.4,424.1 2043.1,430.3 2041,437.1 
			2040.3,444.2 2041,451.3 2043.1,458.1 2046.4,464.3 2050.9,469.8 2056.4,474.3 2062.7,477.7 2069.5,479.7 2076.6,480.4 
			2083.6,479.7 2090.4,477.7 2096.7,474.3 2102.2,469.8 2106.7,464.3 2110,458.1 2112.1,451.3 		"/>
		<line class="st0" x1="1439.2" y1="345.8" x2="1708.6" y2="13.6"/>
		<line class="st0" x1="1718.6" y1="336.2" x2="1471.1" y2="580.1"/>
		<line class="st0" x1="1555" y1="511.7" x2="1592.9" y2="448"/>
		<line class="st0" x1="1879.2" y1="451.8" x2="1738.2" y2="370.6"/>
		<line class="st0" x1="1856.8" y1="445" x2="1581.6" y2="307.7"/>
		<line class="st0" x1="1549" y1="336.4" x2="1376.1" y2="145.4"/>
		<line class="st0" x1="1487.1" y1="209.5" x2="1810.9" y2="164.7"/>
		<line class="st0" x1="1483.3" y1="38.1" x2="1793.7" y2="258.5"/>
		<line class="st0" x1="1336.7" y1="635.5" x2="1920.2" y2="76"/>
		<line class="st0" x1="1324" y1="163.1" x2="1787.9" y2="60.6"/>
		<line class="st0" x1="1309.2" y1="325.6" x2="1843.6" y2="316.2"/>
		<line class="st0" x1="1800.2" y1="21.6" x2="1287.8" y2="443.7"/>
	</g>
	<rect x="1205.9" y="7.1" class="st1" width="1015.1" height="721.1"/>
</g>
</svg>
